<svg width="246" height="97" viewBox="0 0 246 97" fill="none" xmlns="http://www.w3.org/2000/svg">
    <path d="M0 11.3447L212.862 0L242.119 54.335L169.729 96.1311H22.7819L29.2573 68.068L0 11.3447Z" fill="white"/>
    <g filter="url(#filter0_d_147_14)">
    <path d="M139.069 33.7277C139.319 32.3572 140.28 31.2233 141.591 30.7514L176.997 18.0051C179.545 17.088 182.231 18.9757 182.231 21.6833V61.0773C182.231 63.2363 180.48 64.9865 178.321 64.9865H138.052C135.612 64.9865 133.769 62.7759 134.207 60.3755L139.069 33.7277Z" fill="url(#paint0_angular_147_14)"/>
    </g>
    <g filter="url(#filter1_dd_147_14)">
    <path d="M152.725 33.7017C155.855 32.8566 159.282 32.7945 162.583 33.5231C165.883 34.2516 168.911 35.7388 171.29 37.8C173.67 39.8612 175.297 42.4058 175.968 45.1179C176.64 47.83 176.327 50.5903 175.069 53.0562C173.811 55.5222 171.663 57.5852 168.891 58.9894C166.119 60.3935 162.845 61.0769 159.476 60.9549C156.107 60.8328 152.791 59.9105 149.939 58.3026C147.088 56.6946 144.826 54.4718 143.435 51.9098L148.081 50.4526C149.059 52.2551 150.651 53.8191 152.657 54.9504C154.663 56.0817 156.996 56.7306 159.367 56.8165C161.737 56.9024 164.04 56.4215 165.991 55.4336C167.941 54.4457 169.453 52.9942 170.338 51.2592C171.223 49.5242 171.443 47.5821 170.97 45.674C170.498 43.7658 169.353 41.9755 167.679 40.5253C166.005 39.075 163.874 38.0287 161.552 37.5161C159.23 37.0035 156.819 37.0472 154.617 37.6418L152.725 33.7017Z" fill="url(#paint1_angular_147_14)" fill-opacity="0.6" shape-rendering="crispEdges"/>
    </g>
    <g filter="url(#filter2_d_147_14)">
    <path d="M153.893 33.7017C151.734 34.2849 149.771 35.2263 148.125 36.4689C146.478 37.7115 145.181 39.2295 144.313 40.9314C143.445 42.6332 143.023 44.4834 143.073 46.3704C143.123 48.2573 143.643 50.1417 144.603 51.9098L146.94 51.1768C146.123 49.6724 145.68 48.0689 145.638 46.4633C145.595 44.8577 145.954 43.2834 146.693 41.8353C147.432 40.3872 148.535 39.0955 149.936 38.0381C151.337 36.9808 153.007 36.1798 154.845 35.6836L153.893 33.7017Z" fill="url(#paint2_angular_147_14)" fill-opacity="0.6" shape-rendering="crispEdges"/>
    </g>
    <g filter="url(#filter3_d_147_14)">
    <path d="M154.595 59.7312C151.49 58.8199 148.666 57.1209 146.475 54.8451C144.283 52.5692 142.819 49.8167 142.265 46.9291C141.711 44.0414 142.092 41.1458 143.359 38.6015C144.626 36.0572 146.725 33.9762 149.395 32.6168C152.064 31.2573 155.187 30.6793 158.375 30.9544C161.564 31.2295 164.678 32.3456 167.331 34.1642C169.984 35.9829 172.059 38.424 173.299 41.1846C174.539 43.9452 174.889 46.9039 174.306 49.6934L169.561 48.5052C169.971 46.5425 169.725 44.4609 168.853 42.5185C167.98 40.5762 166.52 38.8587 164.654 37.5792C162.787 36.2996 160.596 35.5143 158.353 35.3208C156.109 35.1272 153.912 35.5339 152.034 36.4904C150.156 37.4469 148.679 38.911 147.788 40.7011C146.896 42.4912 146.628 44.5285 147.018 46.5602C147.408 48.5919 148.437 50.5285 149.98 52.1297C151.522 53.731 153.508 54.9263 155.693 55.5675L154.595 59.7312Z" fill="url(#paint3_angular_147_14)" fill-opacity="0.6" shape-rendering="crispEdges"/>
    </g>
    <g filter="url(#filter4_d_147_14)">
    <path d="M54.3266 73.0349V72.3459H57.4931C57.9524 72.3459 58.358 72.258 58.7098 72.0821C59.0617 71.8964 59.3402 71.6374 59.5454 71.3051C59.7507 70.963 59.8533 70.5623 59.8533 70.103C59.8533 69.6437 59.7507 69.2479 59.5454 68.9156C59.3402 68.5735 59.0617 68.3145 58.7098 68.1386C58.358 67.9529 57.9524 67.8601 57.4931 67.8601H54.3266V67.1711H57.581C58.1674 67.1711 58.6854 67.2932 59.1349 67.5376C59.5943 67.7721 59.9559 68.1093 60.2198 68.5491C60.4934 68.9889 60.6302 69.5068 60.6302 70.103C60.6302 70.6992 60.4934 71.2171 60.2198 71.6569C59.9559 72.0869 59.5943 72.4241 59.1349 72.6684C58.6854 72.9128 58.1674 73.0349 57.581 73.0349H54.3266ZM53.8575 77.1689V67.1711H54.6344V77.1689H53.8575ZM68.1542 72.9763L64.1521 67.1711H65.061L68.4913 72.17H68.1542L71.6138 67.1711H72.4934L68.462 72.9763H68.1542ZM67.9343 77.1689V72.3459H68.7112V77.1689H67.9343ZM83.2379 77.1689L77.3447 71.9648L83.1059 67.1711H84.1908L78.151 72.17V71.7156L84.3374 77.1689H83.2379ZM76.7437 77.1689V67.1711H77.5206V77.1689H76.7437ZM88.7021 77.1689V67.1711H89.4791V77.1689H88.7021ZM97.7802 77.1689V67.4496H98.5425V77.1689H97.7802ZM94.1153 67.8747V67.1711H102.207V67.8747H94.1153Z" fill="#333333"/>
    </g>
    <path d="M56.449 64.1684C53.4884 64.1684 50.7989 63.4804 48.3803 62.1044C46.0035 60.7283 44.1271 58.8519 42.7511 56.4751C41.375 54.0983 40.687 51.4504 40.687 48.5315C40.687 45.5709 41.375 42.9231 42.7511 40.588C44.1271 38.2111 46.0035 36.3347 48.3803 34.9587C50.7989 33.5826 53.4884 32.8946 56.449 32.8946C58.7841 32.8946 60.9524 33.3533 62.954 34.2706C64.9972 35.1463 66.7277 36.4181 68.1454 38.086L63.642 42.652C62.7663 41.6096 61.703 40.8381 60.4521 40.3378C59.2428 39.7957 57.9085 39.5246 56.449 39.5246C54.7394 39.5246 53.2174 39.9208 51.883 40.7131C50.5904 41.4636 49.5688 42.5061 48.8182 43.8404C48.1093 45.1748 47.7549 46.7385 47.7549 48.5315C47.7549 50.2829 48.1093 51.8465 48.8182 53.2226C49.5688 54.5569 50.5904 55.6203 51.883 56.4125C53.2174 57.1631 54.7394 57.5384 56.449 57.5384C57.9085 57.5384 59.2428 57.2882 60.4521 56.7878C61.703 56.2457 62.7663 55.4535 63.642 54.411L68.1454 58.977C66.7277 60.6449 64.9972 61.9376 62.954 62.8549C60.9524 63.7306 58.7841 64.1684 56.449 64.1684ZM73.1683 63.543V33.5201H80.0486V63.543H73.1683ZM76.6084 28.0159C75.4409 28.0159 74.461 27.6197 73.6687 26.8275C72.9181 26.0352 72.5428 25.0553 72.5428 23.8877C72.5428 22.7202 72.9181 21.7402 73.6687 20.948C74.461 20.1557 75.4409 19.7596 76.6084 19.7596C77.8177 19.7596 78.7976 20.1557 79.5482 20.948C80.2987 21.7402 80.674 22.7202 80.674 23.8877C80.674 25.0553 80.2987 26.0352 79.5482 26.8275C78.7976 27.6197 77.8177 28.0159 76.6084 28.0159ZM97.5854 64.1684C95.9174 64.1684 94.312 63.96 92.7692 63.543C91.2263 63.0843 89.8086 62.4588 88.5159 61.6665C87.2233 60.8326 86.0974 59.8318 85.1384 58.6642L89.5167 54.2859C90.5592 55.4952 91.7476 56.4125 93.0819 57.038C94.458 57.6218 96.0008 57.9137 97.7105 57.9137C99.2533 57.9137 100.421 57.6843 101.213 57.2256C102.005 56.767 102.402 56.0998 102.402 55.2241C102.402 54.3068 102.026 53.5979 101.276 53.0975C100.525 52.5971 99.5452 52.1801 98.3359 51.8465C97.1684 51.4713 95.9174 51.096 94.5831 50.7207C93.2904 50.3454 92.0395 49.845 90.8302 49.2195C89.6627 48.5524 88.7036 47.6558 87.953 46.53C87.2024 45.4041 86.8272 43.9447 86.8272 42.1516C86.8272 40.2335 87.265 38.5864 88.1407 37.2104C89.058 35.8343 90.3298 34.771 91.9561 34.0204C93.624 33.2699 95.6047 32.8946 97.8981 32.8946C100.317 32.8946 102.443 33.3324 104.278 34.2081C106.154 35.0421 107.718 36.3139 108.969 38.0235L104.591 42.4018C103.715 41.3177 102.714 40.5046 101.588 39.9625C100.463 39.4204 99.1699 39.1494 97.7105 39.1494C96.3344 39.1494 95.2711 39.3578 94.5205 39.7748C93.77 40.1918 93.3947 40.7964 93.3947 41.5887C93.3947 42.4227 93.77 43.069 94.5205 43.5277C95.2711 43.9864 96.2302 44.3825 97.3977 44.7161C98.607 45.0497 99.8579 45.425 101.151 45.842C102.485 46.2172 103.736 46.7593 104.903 47.4682C106.113 48.1354 107.093 49.0527 107.843 50.2203C108.594 51.3462 108.969 52.8265 108.969 54.6612C108.969 57.5801 107.947 59.8944 105.904 61.604C103.861 63.3136 101.088 64.1684 97.5854 64.1684ZM128.464 64.1684C125.504 64.1684 122.814 63.4804 120.396 62.1044C118.019 60.7283 116.142 58.8519 114.766 56.4751C113.39 54.0983 112.702 51.4504 112.702 48.5315C112.702 45.5709 113.39 42.9231 114.766 40.588C116.142 38.2111 118.019 36.3347 120.396 34.9587C122.814 33.5826 125.504 32.8946 128.464 32.8946C130.8 32.8946 132.968 33.3533 134.969 34.2706C137.013 35.1463 138.743 36.4181 140.161 38.086L135.657 42.652C134.782 41.6096 133.718 40.8381 132.467 40.3378C131.258 39.7957 129.924 39.5246 128.464 39.5246C126.755 39.5246 125.233 39.9208 123.898 40.7131C122.606 41.4636 121.584 42.5061 120.834 43.8404C120.125 45.1748 119.77 46.7385 119.77 48.5315C119.77 50.2829 120.125 51.8465 120.834 53.2226C121.584 54.5569 122.606 55.6203 123.898 56.4125C125.233 57.1631 126.755 57.5384 128.464 57.5384C129.924 57.5384 131.258 57.2882 132.467 56.7878C133.718 56.2457 134.782 55.4535 135.657 54.411L140.161 58.977C138.743 60.6449 137.013 61.9376 134.969 62.8549C132.968 63.7306 130.8 64.1684 128.464 64.1684Z" fill="url(#paint4_linear_147_14)" fill-opacity="0.94"/>
    <defs>
    <filter id="filter0_d_147_14" x="132.188" y="17.7705" width="51.9971" height="51.1251" filterUnits="userSpaceOnUse" color-interpolation-filters="sRGB">
    <feFlood flood-opacity="0" result="BackgroundImageFix"/>
    <feColorMatrix in="SourceAlpha" type="matrix" values="0 0 0 0 0 0 0 0 0 0 0 0 0 0 0 0 0 0 127 0" result="hardAlpha"/>
    <feOffset dy="1.95462"/>
    <feGaussianBlur stdDeviation="0.977308"/>
    <feComposite in2="hardAlpha" operator="out"/>
    <feColorMatrix type="matrix" values="0 0 0 0 0 0 0 0 0 0 0 0 0 0 0 0 0 0 0.25 0"/>
    <feBlend mode="normal" in2="BackgroundImageFix" result="effect1_dropShadow_147_14"/>
    <feBlend mode="normal" in="SourceGraphic" in2="effect1_dropShadow_147_14" result="shape"/>
    </filter>
    <filter id="filter1_dd_147_14" x="141.481" y="33.0186" width="36.7881" height="31.8594" filterUnits="userSpaceOnUse" color-interpolation-filters="sRGB">
    <feFlood flood-opacity="0" result="BackgroundImageFix"/>
    <feColorMatrix in="SourceAlpha" type="matrix" values="0 0 0 0 0 0 0 0 0 0 0 0 0 0 0 0 0 0 127 0" result="hardAlpha"/>
    <feOffset dy="1.95462"/>
    <feGaussianBlur stdDeviation="0.977308"/>
    <feComposite in2="hardAlpha" operator="out"/>
    <feColorMatrix type="matrix" values="0 0 0 0 0 0 0 0 0 0 0 0 0 0 0 0 0 0 0.25 0"/>
    <feBlend mode="normal" in2="BackgroundImageFix" result="effect1_dropShadow_147_14"/>
    <feColorMatrix in="SourceAlpha" type="matrix" values="0 0 0 0 0 0 0 0 0 0 0 0 0 0 0 0 0 0 127 0" result="hardAlpha"/>
    <feOffset dy="1.95462"/>
    <feGaussianBlur stdDeviation="0.977308"/>
    <feComposite in2="hardAlpha" operator="out"/>
    <feColorMatrix type="matrix" values="0 0 0 0 0 0 0 0 0 0 0 0 0 0 0 0 0 0 0.25 0"/>
    <feBlend mode="normal" in2="effect1_dropShadow_147_14" result="effect2_dropShadow_147_14"/>
    <feBlend mode="normal" in="SourceGraphic" in2="effect2_dropShadow_147_14" result="shape"/>
    </filter>
    <filter id="filter2_d_147_14" x="141.114" y="33.7021" width="15.6866" height="22.1172" filterUnits="userSpaceOnUse" color-interpolation-filters="sRGB">
    <feFlood flood-opacity="0" result="BackgroundImageFix"/>
    <feColorMatrix in="SourceAlpha" type="matrix" values="0 0 0 0 0 0 0 0 0 0 0 0 0 0 0 0 0 0 127 0" result="hardAlpha"/>
    <feOffset dy="1.95462"/>
    <feGaussianBlur stdDeviation="0.977308"/>
    <feComposite in2="hardAlpha" operator="out"/>
    <feColorMatrix type="matrix" values="0 0 0 0 0 0 0 0 0 0 0 0 0 0 0 0 0 0 0.25 0"/>
    <feBlend mode="normal" in2="BackgroundImageFix" result="effect1_dropShadow_147_14"/>
    <feBlend mode="normal" in="SourceGraphic" in2="effect1_dropShadow_147_14" result="shape"/>
    </filter>
    <filter id="filter3_d_147_14" x="140.063" y="30.8877" width="36.4717" height="32.753" filterUnits="userSpaceOnUse" color-interpolation-filters="sRGB">
    <feFlood flood-opacity="0" result="BackgroundImageFix"/>
    <feColorMatrix in="SourceAlpha" type="matrix" values="0 0 0 0 0 0 0 0 0 0 0 0 0 0 0 0 0 0 127 0" result="hardAlpha"/>
    <feOffset dy="1.95462"/>
    <feGaussianBlur stdDeviation="0.977308"/>
    <feComposite in2="hardAlpha" operator="out"/>
    <feColorMatrix type="matrix" values="0 0 0 0 0 0 0 0 0 0 0 0 0 0 0 0 0 0 0.25 0"/>
    <feBlend mode="normal" in2="BackgroundImageFix" result="effect1_dropShadow_147_14"/>
    <feBlend mode="normal" in="SourceGraphic" in2="effect1_dropShadow_147_14" result="shape"/>
    </filter>
    <filter id="filter4_d_147_14" x="51.9028" y="67.1709" width="52.2588" height="13.9073" filterUnits="userSpaceOnUse" color-interpolation-filters="sRGB">
    <feFlood flood-opacity="0" result="BackgroundImageFix"/>
    <feColorMatrix in="SourceAlpha" type="matrix" values="0 0 0 0 0 0 0 0 0 0 0 0 0 0 0 0 0 0 127 0" result="hardAlpha"/>
    <feOffset dy="1.95462"/>
    <feGaussianBlur stdDeviation="0.977308"/>
    <feComposite in2="hardAlpha" operator="out"/>
    <feColorMatrix type="matrix" values="0 0 0 0 0 0 0 0 0 0 0 0 0 0 0 0 0 0 0.25 0"/>
    <feBlend mode="normal" in2="BackgroundImageFix" result="effect1_dropShadow_147_14"/>
    <feBlend mode="normal" in="SourceGraphic" in2="effect1_dropShadow_147_14" result="shape"/>
    </filter>
    <radialGradient id="paint0_angular_147_14" cx="0" cy="0" r="1" gradientUnits="userSpaceOnUse" gradientTransform="translate(149.246 52.2815) rotate(56.0564) scale(15.3148)">
    <stop stop-color="#333333"/>
    <stop offset="0.71875" stop-color="#54676D"/>
    </radialGradient>
    <radialGradient id="paint1_angular_147_14" cx="0" cy="0" r="1" gradientUnits="userSpaceOnUse" gradientTransform="translate(159.603 48.5258) rotate(-102.79) scale(5.03324 6.24829)">
    <stop offset="0.15625" stop-color="#3BF0E4" stop-opacity="0.86"/>
    <stop offset="0.753031" stop-color="#00AFE7"/>
    </radialGradient>
    <radialGradient id="paint2_angular_147_14" cx="0" cy="0" r="1" gradientUnits="userSpaceOnUse" gradientTransform="translate(160.77 48.5258) rotate(-102.79) scale(5.03324 6.24829)">
    <stop offset="0.15625" stop-color="#3BF0E4" stop-opacity="0.86"/>
    <stop offset="0.753031" stop-color="#00AFE7"/>
    </radialGradient>
    <radialGradient id="paint3_angular_147_14" cx="0" cy="0" r="1" gradientUnits="userSpaceOnUse" gradientTransform="translate(158.921 44.1884) rotate(117.56) scale(5.13561 6.12374)">
    <stop offset="0.15625" stop-color="#3BF0E4" stop-opacity="0.86"/>
    <stop offset="0.753031" stop-color="#00AFE7"/>
    </radialGradient>
    <linearGradient id="paint4_linear_147_14" x1="92.5625" y1="19.543" x2="248.436" y2="109.517" gradientUnits="userSpaceOnUse">
    <stop stop-color="#00AFE7"/>
    <stop offset="1" stop-color="#064784"/>
    </linearGradient>
    </defs>
    </svg>
    