<svg width="424" height="143" viewBox="0 0 424 143" fill="none" 
xmlns="http://www.w3.org/2000/svg">
<g filter="url(#filter0_d_427_310)">
<path d="M205.173 36.0309C205.685 33.2261 207.651 30.9057 210.333 
29.9399L282.79 3.85551C288.004 1.97873 293.5 5.84179 293.5 
11.3826V92C293.5 96.4183 289.918 100 285.5 100H203.092C198.099 100 194.326 
95.4761 195.222 90.5639L205.173 36.0309Z" 
fill="url(#paint0_angular_427_310)"/>
</g>
<g filter="url(#filter1_dd_427_310)">
<path d="M233.117 35.9768C239.521 34.2474 246.536 34.1203 253.29 
35.6112C260.043 37.1022 266.24 40.1456 271.109 44.3637C275.979 48.5819 
279.308 53.7891 280.682 59.3393C282.057 64.8895 281.417 70.5382 278.843 
75.5846C276.268 80.631 271.871 84.8529 266.198 87.7264C260.526 90.5999 
253.826 91.9985 246.932 91.7487C240.038 91.4988 233.252 89.6115 227.416 
86.3209C221.58 83.0304 216.952 78.4814 214.105 73.2385L223.612 
70.2564C225.615 73.9452 228.871 77.1457 232.977 79.4609C237.083 81.7761 
241.858 83.1039 246.708 83.2797C251.559 83.4555 256.272 82.4715 260.264 
80.4498C264.255 78.4281 267.348 75.4576 269.16 71.9071C270.971 68.3566 
271.421 64.3822 270.454 60.4772C269.487 56.5723 267.145 52.9086 263.719 
49.9408C260.293 46.973 255.933 44.8317 251.181 43.7827C246.429 42.7337 
241.494 42.8232 236.989 44.0399L233.117 35.9768Z" 
fill="url(#paint1_angular_427_310)" fill-opacity="0.6" 
shape-rendering="crispEdges"/>
</g>
<g filter="url(#filter2_d_427_310)">
<path d="M235.508 35.9768C231.088 37.1703 227.072 39.0967 223.703 
41.6396C220.333 44.1825 217.679 47.2891 215.902 50.7718C214.125 54.2545 
213.262 58.0409 213.364 61.9024C213.466 65.7639 214.531 69.6202 216.496 
73.2385L221.278 71.7385C219.606 68.6597 218.7 65.3784 218.613 
62.0926C218.526 58.8069 219.261 55.585 220.773 52.6216C222.285 49.6582 
224.543 47.0148 227.41 44.851C230.277 42.6873 233.694 41.0481 237.455 
40.0325L235.508 35.9768Z" fill="url(#paint2_angular_427_310)" 
fill-opacity="0.6" shape-rendering="crispEdges"/>
</g>
<g filter="url(#filter3_d_427_310)">
<path d="M236.945 89.2452C230.591 87.3803 224.813 83.9035 220.327 
79.2461C215.842 74.5887 212.846 68.9558 211.713 63.0465C210.579 57.1371 
211.358 51.2114 213.951 46.0046C216.545 40.7978 220.84 36.5392 226.303 
33.7572C231.766 30.9752 238.156 29.7923 244.681 30.3553C251.206 30.9183 
257.579 33.2023 263.008 36.924C268.437 40.6458 272.684 45.6413 275.222 
51.2908C277.759 56.9402 278.476 62.9949 277.282 68.7036L267.572 
66.2718C268.412 62.2554 267.908 57.9954 266.123 54.0206C264.337 50.0458 
261.349 46.531 257.529 43.9125C253.71 41.294 249.226 39.687 244.635 
39.2909C240.044 38.8948 235.548 39.727 231.704 41.6844C227.861 43.6417 
224.839 46.638 223.014 50.3014C221.189 53.9647 220.642 58.1339 221.439 
62.2916C222.237 66.4493 224.344 70.4125 227.5 73.6893C230.656 76.9661 
234.722 79.4124 239.192 80.7245L236.945 89.2452Z" 
fill="url(#paint3_angular_427_310)" fill-opacity="0.6" 
shape-rendering="crispEdges"/>
</g>
<g filter="url(#filter4_d_427_310)">
<path d="M31.75 116.54V115.13H38.23C39.17 115.13 40 114.95 40.72 
114.59C41.44 114.21 42.01 113.68 42.43 113C42.85 112.3 43.06 111.48 43.06 
110.54C43.06 109.6 42.85 108.79 42.43 108.11C42.01 107.41 41.44 106.88 
40.72 106.52C40 106.14 39.17 105.95 38.23 105.95H31.75V104.54H38.41C39.61 
104.54 40.67 104.79 41.59 105.29C42.53 105.77 43.27 106.46 43.81 
107.36C44.37 108.26 44.65 109.32 44.65 110.54C44.65 111.76 44.37 112.82 
43.81 113.72C43.27 114.6 42.53 115.29 41.59 115.79C40.67 116.29 39.61 
116.54 38.41 116.54H31.75ZM30.79 125V104.54H32.38V125H30.79ZM60.0473 
116.42L51.8573 104.54H53.7173L60.7373 114.77H60.0473L67.1273 
104.54H68.9273L60.6773 116.42H60.0473ZM59.5973 
125V115.13H61.1873V125H59.5973ZM90.9152 125L78.8552 114.35L90.6452 
104.54H92.8652L80.5052 114.77V113.84L93.1652 125H90.9152ZM77.6252 
125V104.54H79.2152V125H77.6252ZM102.097 
125V104.54H103.687V125H102.097ZM120.675 
125V105.11H122.235V125H120.675ZM113.175 
105.98V104.54H129.735V105.98H113.175Z" fill="#333333"/>
</g>
<path d="M36.096 99.28C30.0373 99.28 24.5333 97.872 19.584 95.056C14.72 
92.24 10.88 88.4 8.064 83.536C5.248 78.672 3.84 73.2533 3.84 67.28C3.84 
61.2213 5.248 55.8027 8.064 51.024C10.88 46.16 14.72 42.32 19.584 
39.504C24.5333 36.688 30.0373 35.28 36.096 35.28C40.8747 35.28 45.312 
36.2187 49.408 38.096C53.5893 39.888 57.1307 42.4907 60.032 45.904L50.816 
55.248C49.024 53.1147 46.848 51.536 44.288 50.512C41.8133 49.4027 39.0827 
48.848 36.096 48.848C32.5973 48.848 29.4827 49.6587 26.752 51.28C24.1067 
52.816 22.016 54.9493 20.48 57.68C19.0293 60.4107 18.304 63.6107 18.304 
67.28C18.304 70.864 19.0293 74.064 20.48 76.88C22.016 79.6107 24.1067 
81.7867 26.752 83.408C29.4827 84.944 32.5973 85.712 36.096 85.712C39.0827 
85.712 41.8133 85.2 44.288 84.176C46.848 83.0667 49.024 81.4453 50.816 
79.312L60.032 88.656C57.1307 92.0693 53.5893 94.7147 49.408 96.592C45.312 
98.384 40.8747 99.28 36.096 99.28ZM70.311 
98V36.56H84.391V98H70.311ZM77.351 25.296C74.9617 25.296 72.9563 24.4853 
71.335 22.864C69.799 21.2427 69.031 19.2373 69.031 16.848C69.031 14.4587 
69.799 12.4533 71.335 10.832C72.9563 9.21066 74.9617 8.39999 77.351 
8.39999C79.8257 8.39999 81.831 9.21066 83.367 10.832C84.903 12.4533 85.671 
14.4587 85.671 16.848C85.671 19.2373 84.903 21.2427 83.367 22.864C81.831 
24.4853 79.8257 25.296 77.351 25.296ZM120.279 99.28C116.866 99.28 113.58 
98.8533 110.423 98C107.266 97.0613 104.364 95.7813 101.719 94.16C99.0737 
92.4533 96.7697 90.4053 94.807 88.016L103.767 79.056C105.9 81.5307 108.332 
83.408 111.063 84.688C113.879 85.8827 117.036 86.48 120.535 86.48C123.692 
86.48 126.082 86.0107 127.703 85.072C129.324 84.1333 130.135 82.768 
130.135 80.976C130.135 79.0987 129.367 77.648 127.831 76.624C126.295 75.6 
124.29 74.7467 121.815 74.064C119.426 73.296 116.866 72.528 114.135 
71.76C111.49 70.992 108.93 69.968 106.455 68.688C104.066 67.3227 102.103 
65.488 100.567 63.184C99.031 60.88 98.263 57.8933 98.263 54.224C98.263 
50.2987 99.159 46.928 100.951 44.112C102.828 41.296 105.431 39.12 108.759 
37.584C112.172 36.048 116.226 35.28 120.919 35.28C125.868 35.28 130.22 
36.176 133.975 37.968C137.815 39.6747 141.015 42.2773 143.575 
45.776L134.615 54.736C132.823 52.5173 130.775 50.8533 128.471 
49.744C126.167 48.6347 123.522 48.08 120.535 48.08C117.719 48.08 115.543 
48.5067 114.007 49.36C112.471 50.2133 111.703 51.4507 111.703 
53.072C111.703 54.7787 112.471 56.1013 114.007 57.04C115.543 57.9787 
117.506 58.7893 119.895 59.472C122.37 60.1547 124.93 60.9227 127.575 
61.776C130.306 62.544 132.866 63.6533 135.255 65.104C137.73 66.4693 
139.735 68.3467 141.271 70.736C142.807 73.04 143.575 76.0693 143.575 
79.824C143.575 85.7973 141.484 90.5333 137.303 94.032C133.122 97.5307 
127.447 99.28 120.279 99.28ZM183.471 99.28C177.412 99.28 171.908 97.872 
166.959 95.056C162.095 92.24 158.255 88.4 155.439 83.536C152.623 78.672 
151.215 73.2533 151.215 67.28C151.215 61.2213 152.623 55.8027 155.439 
51.024C158.255 46.16 162.095 42.32 166.959 39.504C171.908 36.688 177.412 
35.28 183.471 35.28C188.25 35.28 192.687 36.2187 196.783 38.096C200.964 
39.888 204.506 42.4907 207.407 45.904L198.191 55.248C196.399 53.1147 
194.223 51.536 191.663 50.512C189.188 49.4027 186.458 48.848 183.471 
48.848C179.972 48.848 176.858 49.6587 174.127 51.28C171.482 52.816 169.391 
54.9493 167.855 57.68C166.404 60.4107 165.679 63.6107 165.679 
67.28C165.679 70.864 166.404 74.064 167.855 76.88C169.391 79.6107 171.482 
81.7867 174.127 83.408C176.858 84.944 179.972 85.712 183.471 
85.712C186.458 85.712 189.188 85.2 191.663 84.176C194.223 83.0667 196.399 
81.4453 198.191 79.312L207.407 88.656C204.506 92.0693 200.964 94.7147 
196.783 96.592C192.687 98.384 188.25 99.28 183.471 99.28Z" 
fill="url(#paint4_linear_427_310)" fill-opacity="0.94"/>
<defs>
<filter id="filter0_d_427_310" x="191.09" y="3.37598" width="106.41" 
height="104.624" filterUnits="userSpaceOnUse" 
color-interpolation-filters="sRGB">
<feFlood flood-opacity="0" result="BackgroundImageFix"/>
<feColorMatrix in="SourceAlpha" type="matrix" values="0 0 0 0 0 0 0 0 0 0 
0 0 0 0 0 0 0 0 127 0" result="hardAlpha"/>
<feOffset dy="4"/>
<feGaussianBlur stdDeviation="2"/>
<feComposite in2="hardAlpha" operator="out"/>
<feColorMatrix type="matrix" values="0 0 0 0 0 0 0 0 0 0 0 0 0 0 0 0 0 0 
0.25 0"/>
<feBlend mode="normal" in2="BackgroundImageFix" 
result="effect1_dropShadow_427_310"/>
<feBlend mode="normal" in="SourceGraphic" in2="effect1_dropShadow_427_310" 
result="shape"/>
</filter>
<filter id="filter1_dd_427_310" x="210.105" y="34.5791" width="75.2832" 
height="65.1982" filterUnits="userSpaceOnUse" 
color-interpolation-filters="sRGB">
<feFlood flood-opacity="0" result="BackgroundImageFix"/>
<feColorMatrix in="SourceAlpha" type="matrix" values="0 0 0 0 0 0 0 0 0 0 
0 0 0 0 0 0 0 0 127 0" result="hardAlpha"/>
<feOffset dy="4"/>
<feGaussianBlur stdDeviation="2"/>
<feComposite in2="hardAlpha" operator="out"/>
<feColorMatrix type="matrix" values="0 0 0 0 0 0 0 0 0 0 0 0 0 0 0 0 0 0 
0.25 0"/>
<feBlend mode="normal" in2="BackgroundImageFix" 
result="effect1_dropShadow_427_310"/>
<feColorMatrix in="SourceAlpha" type="matrix" values="0 0 0 0 0 0 0 0 0 0 
0 0 0 0 0 0 0 0 127 0" result="hardAlpha"/>
<feOffset dy="4"/>
<feGaussianBlur stdDeviation="2"/>
<feComposite in2="hardAlpha" operator="out"/>
<feColorMatrix type="matrix" values="0 0 0 0 0 0 0 0 0 0 0 0 0 0 0 0 0 0 
0.25 0"/>
<feBlend mode="normal" in2="effect1_dropShadow_427_310" 
result="effect2_dropShadow_427_310"/>
<feBlend mode="normal" in="SourceGraphic" in2="effect2_dropShadow_427_310" 
result="shape"/>
</filter>
<filter id="filter2_d_427_310" x="209.355" y="35.9766" width="32.0996" 
height="45.2617" filterUnits="userSpaceOnUse" 
color-interpolation-filters="sRGB">
<feFlood flood-opacity="0" result="BackgroundImageFix"/>
<feColorMatrix in="SourceAlpha" type="matrix" values="0 0 0 0 0 0 0 0 0 0 
0 0 0 0 0 0 0 0 127 0" result="hardAlpha"/>
<feOffset dy="4"/>
<feGaussianBlur stdDeviation="2"/>
<feComposite in2="hardAlpha" operator="out"/>
<feColorMatrix type="matrix" values="0 0 0 0 0 0 0 0 0 0 0 0 0 0 0 0 0 0 
0.25 0"/>
<feBlend mode="normal" in2="BackgroundImageFix" 
result="effect1_dropShadow_427_310"/>
<feBlend mode="normal" in="SourceGraphic" in2="effect1_dropShadow_427_310" 
result="shape"/>
</filter>
<filter id="filter3_d_427_310" x="207.207" y="30.2188" width="74.6367" 
height="67.0264" filterUnits="userSpaceOnUse" 
color-interpolation-filters="sRGB">
<feFlood flood-opacity="0" result="BackgroundImageFix"/>
<feColorMatrix in="SourceAlpha" type="matrix" values="0 0 0 0 0 0 0 0 0 0 
0 0 0 0 0 0 0 0 127 0" result="hardAlpha"/>
<feOffset dy="4"/>
<feGaussianBlur stdDeviation="2"/>
<feComposite in2="hardAlpha" operator="out"/>
<feColorMatrix type="matrix" values="0 0 0 0 0 0 0 0 0 0 0 0 0 0 0 0 0 0 
0.25 0"/>
<feBlend mode="normal" in2="BackgroundImageFix" 
result="effect1_dropShadow_427_310"/>
<feBlend mode="normal" in="SourceGraphic" in2="effect1_dropShadow_427_310" 
result="shape"/>
</filter>
<filter id="filter4_d_427_310" x="26.7891" y="104.54" width="106.945" 
height="28.46" filterUnits="userSpaceOnUse" 
color-interpolation-filters="sRGB">
<feFlood flood-opacity="0" result="BackgroundImageFix"/>
<feColorMatrix in="SourceAlpha" type="matrix" values="0 0 0 0 0 0 0 0 0 0 
0 0 0 0 0 0 0 0 127 0" result="hardAlpha"/>
<feOffset dy="4"/>
<feGaussianBlur stdDeviation="2"/>
<feComposite in2="hardAlpha" operator="out"/>
<feColorMatrix type="matrix" values="0 0 0 0 0 0 0 0 0 0 0 0 0 0 0 0 0 0 
0.25 0"/>
<feBlend mode="normal" in2="BackgroundImageFix" 
result="effect1_dropShadow_427_310"/>
<feBlend mode="normal" in="SourceGraphic" in2="effect1_dropShadow_427_310" 
result="shape"/>
</filter>
<radialGradient id="paint0_angular_427_310" cx="0" cy="0" r="1" 
gradientUnits="userSpaceOnUse" gradientTransform="translate(226 74) 
rotate(56.0564) scale(31.3409)">
<stop stop-color="#333333"/>
<stop offset="0.71875" stop-color="#54676D"/>
</radialGradient>
<radialGradient id="paint1_angular_427_310" cx="0" cy="0" r="1" 
gradientUnits="userSpaceOnUse" gradientTransform="translate(247.191 
66.3133) rotate(-102.79) scale(10.3002 12.7867)">
<stop offset="0.15625" stop-color="#3BF0E4" stop-opacity="0.86"/>
<stop offset="0.753031" stop-color="#00AFE7"/>
</radialGradient>
<radialGradient id="paint2_angular_427_310" cx="0" cy="0" r="1" 
gradientUnits="userSpaceOnUse" gradientTransform="translate(249.581 
66.3133) rotate(-102.79) scale(10.3002 12.7867)">
<stop offset="0.15625" stop-color="#3BF0E4" stop-opacity="0.86"/>
<stop offset="0.753031" stop-color="#00AFE7"/>
</radialGradient>
<radialGradient id="paint3_angular_427_310" cx="0" cy="0" r="1" 
gradientUnits="userSpaceOnUse" gradientTransform="translate(245.798 
57.4379) rotate(117.56) scale(10.5097 12.5319)">
<stop offset="0.15625" stop-color="#3BF0E4" stop-opacity="0.86"/>
<stop offset="0.753031" stop-color="#00AFE7"/>
</radialGradient>
<linearGradient id="paint4_linear_427_310" x1="110" y1="7" x2="428.985" 
y2="191.125" gradientUnits="userSpaceOnUse">
<stop stop-color="#00AFE7"/>
<stop offset="1" stop-color="#064784"/>
</linearGradient>
</defs>
</svg>

