<svg width="603" height="141" viewBox="0 0 603 141" fill="none" xmlns="http://www.w3.org/2000/svg">
<g filter="url(#filter0_d_1_2)">
<path d="M522.565 120.999C511.623 120.999 502.345 112.959 500.789 102.128L493.854 53.8649C492.237 42.6109 499.462 31.9786 510.521 29.3378L560.473 17.4089C575.454 13.8312 589.38 26.3595 587.4 41.6346L579.6 101.827C578.179 112.792 568.84 120.999 557.782 120.999L522.565 120.999Z" fill="url(#paint0_linear_1_2)" shape-rendering="crispEdges"/>
<path d="M522.565 120.999C511.623 120.999 502.345 112.959 500.789 102.128L493.854 53.8649C492.237 42.6109 499.462 31.9786 510.521 29.3378L560.473 17.4089C575.454 13.8312 589.38 26.3595 587.4 41.6346L579.6 101.827C578.179 112.792 568.84 120.999 557.782 120.999L522.565 120.999Z" fill="white" fill-opacity="0.2" shape-rendering="crispEdges"/>
</g>
<g filter="url(#filter1_d_1_2)">
<path d="M522.565 120.999C511.623 120.999 502.345 112.959 500.789 102.128L493.854 53.8649C492.237 42.6109 499.462 31.9786 510.521 29.3378L560.473 17.4089C575.454 13.8312 589.38 26.3595 587.4 41.6346L579.6 101.827C578.179 112.792 568.84 120.999 557.782 120.999L522.565 120.999Z" fill="url(#paint1_linear_1_2)" shape-rendering="crispEdges"/>
<path d="M522.565 120.999C511.623 120.999 502.345 112.959 500.789 102.128L493.854 53.8649C492.237 42.6109 499.462 31.9786 510.521 29.3378L560.473 17.4089C575.454 13.8312 589.38 26.3595 587.4 41.6346L579.6 101.827C578.179 112.792 568.84 120.999 557.782 120.999L522.565 120.999Z" fill="white" fill-opacity="0.2" shape-rendering="crispEdges"/>
</g>
<path d="M38.9953 123.626C34.8402 123.626 31.2271 122.903 28.156 121.458C25.145 120.013 22.6459 118.086 20.6587 115.677C18.6715 113.208 17.166 110.498 16.1423 107.548C15.1788 104.597 14.6971 101.646 14.6971 98.6953V97.0694C14.6971 93.9983 15.1788 90.9873 16.1423 88.0366C17.166 85.0859 18.6715 82.4363 20.6587 80.0878C22.7062 77.679 25.2353 75.752 28.2463 74.3068C31.2572 72.8615 34.78 72.1389 38.8147 72.1389C42.8493 72.1389 46.4625 72.8916 49.654 74.3971C52.9059 75.9025 55.4953 78.0403 57.4223 80.8104C59.4095 83.5202 60.5235 86.7419 60.7644 90.4755H52.4542C52.0327 87.4645 50.6477 84.9655 48.2991 82.9783C45.9506 80.9308 42.7891 79.9071 38.8147 79.9071C35.3822 79.9071 32.5218 80.6899 30.2335 82.2556C27.9452 83.8213 26.229 85.9591 25.0848 88.6689C23.9406 91.3788 23.3686 94.4499 23.3686 97.8824C23.3686 101.194 23.9406 104.235 25.0848 107.006C26.229 109.715 27.9452 111.883 30.2335 113.509C32.582 115.075 35.5026 115.858 38.9953 115.858C41.7052 115.858 44.0537 115.376 46.0409 114.412C48.0281 113.449 49.6239 112.154 50.8283 110.528C52.0327 108.902 52.7553 107.066 52.9962 105.018H61.3064C61.1257 108.812 60.0117 112.094 57.9642 114.864C55.977 117.634 53.3274 119.802 50.0154 121.368C46.7635 122.873 43.0902 123.626 38.9953 123.626ZM75.4378 122V73.7648H84.1093V122H75.4378ZM68.0309 80.6297V73.7648H84.1093V80.6297H68.0309ZM77.8766 65.9966C75.9496 65.9966 74.5044 65.4847 73.5409 64.461C72.6376 63.4373 72.186 62.1426 72.186 60.5769C72.186 59.0112 72.6376 57.7165 73.5409 56.6928C74.5044 55.6691 75.9496 55.1572 77.8766 55.1572C79.8036 55.1572 81.2188 55.6691 82.1221 56.6928C83.0856 57.7165 83.5673 59.0112 83.5673 60.5769C83.5673 62.1426 83.0856 63.4373 82.1221 64.461C81.2188 65.4847 79.8036 65.9966 77.8766 65.9966ZM116.683 123.445C110.36 123.445 105.452 122.09 101.96 119.38C98.5272 116.671 96.7507 112.967 96.6303 108.27H104.76C104.88 110.137 105.814 111.913 107.56 113.599C109.367 115.225 112.408 116.038 116.683 116.038C120.537 116.038 123.488 115.286 125.535 113.78C127.583 112.214 128.606 110.318 128.606 108.089C128.606 106.102 127.854 104.567 126.348 103.483C124.843 102.339 122.404 101.586 119.032 101.225L113.793 100.683C109.216 100.201 105.482 98.8459 102.592 96.6178C99.7015 94.3295 98.2562 91.1379 98.2562 87.043C98.2562 83.9719 99.0391 81.3523 100.605 79.1845C102.17 76.9564 104.338 75.2703 107.108 74.1261C109.878 72.9217 113.07 72.3195 116.683 72.3195C122.103 72.3195 126.499 73.5239 129.871 75.9327C133.243 78.3414 134.99 81.9244 135.11 86.6817H126.981C126.92 84.7547 126.017 83.1288 124.271 81.804C122.585 80.419 120.055 79.7264 116.683 79.7264C113.311 79.7264 110.752 80.419 109.005 81.804C107.259 83.189 106.386 84.9354 106.386 87.043C106.386 88.8496 106.988 90.2948 108.192 91.3788C109.457 92.4627 111.504 93.1552 114.335 93.4563L119.574 93.9983C124.752 94.5403 128.908 95.9855 132.039 98.334C135.17 100.622 136.736 103.874 136.736 108.089C136.736 111.1 135.863 113.78 134.116 116.129C132.43 118.417 130.082 120.224 127.071 121.548C124.06 122.813 120.597 123.445 116.683 123.445ZM169.989 123.626C165.834 123.626 162.221 122.903 159.149 121.458C156.138 120.013 153.639 118.086 151.652 115.677C149.665 113.208 148.159 110.498 147.136 107.548C146.172 104.597 145.69 101.646 145.69 98.6953V97.0694C145.69 93.9983 146.172 90.9873 147.136 88.0366C148.159 85.0859 149.665 82.4363 151.652 80.0878C153.7 77.679 156.229 75.752 159.24 74.3068C162.251 72.8615 165.773 72.1389 169.808 72.1389C173.843 72.1389 177.456 72.8916 180.647 74.3971C183.899 75.9025 186.489 78.0403 188.416 80.8104C190.403 83.5202 191.517 86.7419 191.758 90.4755H183.448C183.026 87.4645 181.641 84.9655 179.293 82.9783C176.944 80.9308 173.783 79.9071 169.808 79.9071C166.376 79.9071 163.515 80.6899 161.227 82.2556C158.939 83.8213 157.222 85.9591 156.078 88.6689C154.934 91.3788 154.362 94.4499 154.362 97.8824C154.362 101.194 154.934 104.235 156.078 107.006C157.222 109.715 158.939 111.883 161.227 113.509C163.575 115.075 166.496 115.858 169.989 115.858C172.699 115.858 175.047 115.376 177.034 114.412C179.022 113.449 180.617 112.154 181.822 110.528C183.026 108.902 183.749 107.066 183.99 105.018H192.3C192.119 108.812 191.005 112.094 188.958 114.864C186.97 117.634 184.321 119.802 181.009 121.368C177.757 122.873 174.084 123.626 169.989 123.626ZM226.303 123.626C222.088 123.626 218.385 122.903 215.193 121.458C212.001 120.013 209.292 118.116 207.063 115.767C204.896 113.359 203.24 110.679 202.095 107.728C201.012 104.777 200.47 101.767 200.47 98.6953V97.0694C200.47 93.9983 201.042 90.9873 202.186 88.0366C203.33 85.0257 205.016 82.346 207.244 79.9974C209.472 77.5887 212.182 75.6918 215.374 74.3068C218.565 72.8615 222.209 72.1389 226.303 72.1389C230.398 72.1389 234.041 72.8615 237.233 74.3068C240.425 75.6918 243.135 77.5887 245.363 79.9974C247.591 82.346 249.277 85.0257 250.421 88.0366C251.565 90.9873 252.137 93.9983 252.137 97.0694V98.6953C252.137 101.767 251.565 104.777 250.421 107.728C249.337 110.679 247.681 113.359 245.453 115.767C243.285 118.116 240.605 120.013 237.414 121.458C234.222 122.903 230.519 123.626 226.303 123.626ZM226.303 115.858C229.917 115.858 232.988 115.075 235.517 113.509C238.106 111.883 240.063 109.715 241.388 107.006C242.773 104.296 243.466 101.255 243.466 97.8824C243.466 94.4499 242.773 91.3788 241.388 88.6689C240.003 85.9591 238.016 83.8213 235.427 82.2556C232.897 80.6899 229.856 79.9071 226.303 79.9071C222.811 79.9071 219.77 80.6899 217.18 82.2556C214.591 83.8213 212.604 85.9591 211.219 88.6689C209.834 91.3788 209.141 94.4499 209.141 97.8824C209.141 101.255 209.803 104.296 211.128 107.006C212.513 109.715 214.47 111.883 217 113.509C219.589 115.075 222.69 115.858 226.303 115.858ZM265.125 140.066V73.7648H271.99V94.6306L270.364 94.4499C270.665 89.2711 271.749 85.0558 273.616 81.804C275.543 78.492 278.042 76.0531 281.113 74.4874C284.184 72.9217 287.526 72.1389 291.139 72.1389C294.632 72.1389 297.793 72.8013 300.624 74.1261C303.514 75.4509 305.983 77.2575 308.031 79.5458C310.078 81.8341 311.644 84.4837 312.728 87.4947C313.812 90.5056 314.354 93.6972 314.354 97.0694V98.6953C314.354 102.068 313.781 105.259 312.637 108.27C311.493 111.281 309.867 113.931 307.76 116.219C305.712 118.507 303.243 120.314 300.353 121.639C297.522 122.963 294.391 123.626 290.959 123.626C287.526 123.626 284.244 122.873 281.113 121.368C277.981 119.862 275.392 117.423 273.345 114.051C271.297 110.679 270.123 106.253 269.822 100.773L273.796 107.999V140.066H265.125ZM289.604 116.038C292.855 116.038 295.686 115.286 298.094 113.78C300.503 112.214 302.37 110.077 303.695 107.367C305.02 104.597 305.682 101.435 305.682 97.8824C305.682 94.2693 305.02 91.1078 303.695 88.3979C302.37 85.6881 300.503 83.5804 298.094 82.075C295.686 80.5093 292.855 79.7264 289.604 79.7264C286.713 79.7264 284.033 80.3888 281.564 81.7137C279.095 82.9783 277.108 84.845 275.603 87.314C274.158 89.7228 273.435 92.6434 273.435 96.0758V100.231C273.435 103.543 274.188 106.373 275.693 108.722C277.199 111.07 279.186 112.877 281.655 114.141C284.124 115.406 286.773 116.038 289.604 116.038ZM323.268 140.788V133.02H330.223C332.27 133.02 333.987 132.749 335.372 132.207C336.817 131.725 337.991 130.882 338.895 129.678C339.858 128.474 340.641 126.878 341.243 124.89L356.418 73.7648H364.909L348.831 127.149C347.867 130.34 346.512 132.93 344.766 134.917C343.02 136.964 340.882 138.44 338.353 139.343C335.884 140.306 332.993 140.788 329.681 140.788H323.268ZM337.991 120.916V113.69H348.469V120.916H337.991ZM337.088 120.916L319.835 73.7648H328.687L345.218 120.916H337.088ZM409.159 122L391.003 99.5083H383.054L405.184 73.7648H414.307L394.254 96.9791L394.887 92.3724L419.185 122H409.159ZM375.918 122V56.0605H384.589V122H375.918ZM430.046 122V73.7648H438.718V122H430.046ZM422.639 80.6297V73.7648H438.718V80.6297H422.639ZM432.485 65.9966C430.558 65.9966 429.113 65.4847 428.149 64.461C427.246 63.4373 426.794 62.1426 426.794 60.5769C426.794 59.0112 427.246 57.7165 428.149 56.6928C429.113 55.6691 430.558 55.1572 432.485 55.1572C434.412 55.1572 435.827 55.6691 436.731 56.6928C437.694 57.7165 438.176 59.0112 438.176 60.5769C438.176 62.1426 437.694 63.4373 436.731 64.461C435.827 65.4847 434.412 65.9966 432.485 65.9966ZM474.272 122.542C470.659 122.542 467.528 122.03 464.878 121.006C462.289 119.983 460.272 118.236 458.826 115.767C457.441 113.238 456.749 109.836 456.749 105.56V59.1316H465.059V106.644C465.059 109.234 465.751 111.251 467.136 112.696C468.582 114.081 470.599 114.774 473.188 114.774H481.679V122.542H474.272ZM448.439 80.2684V73.7648H481.679V80.2684H448.439Z" fill="#030303"/>
<path d="M28.156 121.458L27.7354 122.334L27.7422 122.337L28.156 121.458ZM20.6587 115.677L19.9016 116.286L19.9091 116.295L20.6587 115.677ZM16.1423 107.548L15.2185 107.849L15.2213 107.858L15.2242 107.866L16.1423 107.548ZM16.1423 88.0366L15.2242 87.7181L15.2213 87.7265L15.2185 87.735L16.1423 88.0366ZM20.6587 80.0878L19.9183 79.4584L19.9169 79.46L20.6587 80.0878ZM28.2463 74.3068L28.6668 75.1828L28.6668 75.1828L28.2463 74.3068ZM49.654 74.3971L49.2395 75.276L49.2458 75.2789L49.654 74.3971ZM57.4223 80.8104L56.6245 81.3653L56.6315 81.3753L56.6386 81.385L57.4223 80.8104ZM60.7644 90.4755V91.4473H61.8009L61.7342 90.4129L60.7644 90.4755ZM52.4542 90.4755L51.4918 90.6102L51.609 91.4473H52.4542V90.4755ZM48.2991 82.9783L47.6605 83.7107L47.6659 83.7155L47.6714 83.7201L48.2991 82.9783ZM30.2335 82.2556L29.6848 81.4536L29.6848 81.4536L30.2335 82.2556ZM25.0848 88.6689L25.98 89.0469L25.98 89.0469L25.0848 88.6689ZM25.0848 107.006L24.1866 107.377L24.1896 107.384L25.0848 107.006ZM30.2335 113.509L29.6706 114.301L29.6824 114.31L29.6945 114.318L30.2335 113.509ZM46.0409 114.412L45.617 113.538L45.617 113.538L46.0409 114.412ZM50.8283 110.528L51.6092 111.107L51.6092 111.107L50.8283 110.528ZM52.9962 105.018V104.047H52.132L52.0311 104.905L52.9962 105.018ZM61.3064 105.018L62.277 105.065L62.3255 104.047H61.3064V105.018ZM57.9642 114.864L57.1827 114.286L57.1746 114.298L57.9642 114.864ZM50.0154 121.368L50.4236 122.25L50.4307 122.246L50.0154 121.368ZM38.9953 122.654C34.9519 122.654 31.4858 121.951 28.5697 120.579L27.7422 122.337C30.9685 123.856 34.7286 124.598 38.9953 124.598V122.654ZM28.5765 120.582C25.6836 119.193 23.2997 117.351 21.4083 115.059L19.9091 116.295C21.9922 118.82 24.6064 120.832 27.7354 122.334L28.5765 120.582ZM21.4157 115.068C19.4975 112.684 18.047 110.073 17.0604 107.229L15.2242 107.866C16.2851 110.924 17.8455 113.732 19.9017 116.286L21.4157 115.068ZM17.0661 107.246C16.1327 104.387 15.6688 101.538 15.6688 98.6953H13.7253C13.7253 101.754 14.2249 104.806 15.2185 107.849L17.0661 107.246ZM15.6688 98.6953V97.0694H13.7253V98.6953H15.6688ZM15.6688 97.0694C15.6688 94.1018 16.134 91.1927 17.0661 88.3383L15.2185 87.735C14.2236 90.782 13.7253 93.8947 13.7253 97.0694H15.6688ZM17.0604 88.3551C18.0455 85.5157 19.4918 82.9712 21.4006 80.7155L19.9169 79.46C17.8512 81.9013 16.2866 84.6561 15.2242 87.7181L17.0604 88.3551ZM21.3991 80.7171C23.3535 78.4179 25.7715 76.5725 28.6668 75.1828L27.8258 73.4307C24.6991 74.9315 22.0588 76.9401 19.9183 79.4584L21.3991 80.7171ZM28.6668 75.1828C31.522 73.8123 34.8958 73.1106 38.8147 73.1106V71.1671C34.6643 71.1671 30.9924 71.9107 27.8258 73.4307L28.6668 75.1828ZM38.8147 73.1106C42.7265 73.1106 46.1949 73.8399 49.2395 75.276L50.0686 73.5182C46.73 71.9434 42.9721 71.1671 38.8147 71.1671V73.1106ZM49.2458 75.2789C52.3511 76.7166 54.8022 78.7457 56.6245 81.3653L58.22 80.2554C56.1883 77.3349 53.4606 75.0885 50.0623 73.5152L49.2458 75.2789ZM56.6386 81.385C58.5041 83.9288 59.5643 86.9678 59.7947 90.5381L61.7342 90.4129C61.4827 86.5161 60.3149 83.1116 58.2059 80.2357L56.6386 81.385ZM60.7644 89.5037H52.4542V91.4473H60.7644V89.5037ZM53.4166 90.3408C52.9615 87.0901 51.4554 84.3759 48.9268 82.2364L47.6714 83.7201C49.8399 85.555 51.1039 87.839 51.4918 90.6102L53.4166 90.3408ZM48.9377 82.2458C46.3678 80.0053 42.9574 78.9353 38.8147 78.9353V80.8789C42.6209 80.8789 45.5334 81.8563 47.6605 83.7107L48.9377 82.2458ZM38.8147 78.9353C35.2333 78.9353 32.1695 79.7535 29.6848 81.4536L30.7822 83.0576C32.8741 81.6264 35.5311 80.8789 38.8147 80.8789V78.9353ZM29.6848 81.4536C27.2332 83.131 25.4016 85.4204 24.1896 88.2909L25.98 89.0469C27.0563 86.4977 28.6572 84.5116 30.7822 83.0576L29.6848 81.4536ZM24.1896 88.2909C22.9872 91.1387 22.3968 94.3415 22.3968 97.8824H24.3403C24.3403 94.5584 24.8941 91.6189 25.98 89.0469L24.1896 88.2909ZM22.3968 97.8824C22.3968 101.308 22.989 104.477 24.1866 107.377L25.983 106.635C24.8923 103.994 24.3403 101.081 24.3403 97.8824H22.3968ZM24.1896 107.384C25.4004 110.251 27.228 112.566 29.6706 114.301L30.7964 112.717C28.6623 111.201 27.0575 109.179 25.98 106.628L24.1896 107.384ZM29.6945 114.318C32.2369 116.013 35.3566 116.829 38.9953 116.829V114.886C35.6487 114.886 32.9272 114.137 30.7725 112.701L29.6945 114.318ZM38.9953 116.829C41.8193 116.829 44.3189 116.327 46.4649 115.287L45.617 113.538C43.7885 114.425 41.591 114.886 38.9953 114.886V116.829ZM46.4649 115.287C48.58 114.261 50.3031 112.87 51.6092 111.107L50.0474 109.95C48.9448 111.439 47.4763 112.637 45.617 113.538L46.4649 115.287ZM51.6092 111.107C52.9164 109.342 53.701 107.344 53.9613 105.132L52.0311 104.905C51.8096 106.787 51.1489 108.463 50.0474 109.95L51.6092 111.107ZM52.9962 105.99H61.3064V104.047H52.9962V105.99ZM60.3357 104.972C60.1632 108.594 59.1044 111.687 57.1828 114.286L58.7457 115.442C60.919 112.501 62.0882 109.03 62.277 105.065L60.3357 104.972ZM57.1746 114.298C55.2908 116.924 52.7743 118.989 49.6 120.489L50.4307 122.246C53.8805 120.615 56.6632 118.345 58.7538 115.431L57.1746 114.298ZM49.6071 120.486C46.5003 121.924 42.9693 122.654 38.9953 122.654V124.598C43.2111 124.598 47.0268 123.822 50.4236 122.25L49.6071 120.486ZM75.4378 122H74.466V122.972H75.4378V122ZM75.4378 73.7648V72.793H74.466V73.7648H75.4378ZM84.1093 73.7648H85.0811V72.793H84.1093V73.7648ZM84.1093 122V122.972H85.0811V122H84.1093ZM68.0309 80.6297H67.0591V81.6015H68.0309V80.6297ZM68.0309 73.7648V72.793H67.0591V73.7648H68.0309ZM84.1093 73.7648H85.0811V72.793H84.1093V73.7648ZM84.1093 80.6297V81.6015H85.0811V80.6297H84.1093ZM73.5409 64.461L72.8122 65.1039L72.8226 65.1156L72.8333 65.127L73.5409 64.461ZM73.5409 56.6928L72.8333 56.0268L72.8226 56.0381L72.8122 56.0498L73.5409 56.6928ZM82.1221 56.6928L81.3934 57.3357L81.4037 57.3474L81.4144 57.3588L82.1221 56.6928ZM82.1221 64.461L81.4144 63.795L81.4037 63.8063L81.3934 63.818L82.1221 64.461ZM76.4096 122V73.7648H74.466V122H76.4096ZM75.4378 74.7365H84.1093V72.793H75.4378V74.7365ZM83.1375 73.7648V122H85.0811V73.7648H83.1375ZM84.1093 121.028H75.4378V122.972H84.1093V121.028ZM69.0026 80.6297V73.7648H67.0591V80.6297H69.0026ZM68.0309 74.7365H84.1093V72.793H68.0309V74.7365ZM83.1375 73.7648V80.6297H85.0811V73.7648H83.1375ZM84.1093 79.658H68.0309V81.6015H84.1093V79.658ZM77.8766 65.0248C76.115 65.0248 74.9683 64.5597 74.2485 63.795L72.8333 65.127C74.0405 66.4097 75.7843 66.9683 77.8766 66.9683V65.0248ZM74.2696 63.818C73.5458 62.9978 73.1577 61.9428 73.1577 60.5769H71.2142C71.2142 62.3423 71.7294 63.8767 72.8122 65.1039L74.2696 63.818ZM73.1577 60.5769C73.1577 59.2109 73.5458 58.156 74.2696 57.3357L72.8122 56.0498C71.7294 57.277 71.2142 58.8114 71.2142 60.5769H73.1577ZM74.2485 57.3588C74.9683 56.5941 76.115 56.129 77.8766 56.129V54.1854C75.7843 54.1854 74.0405 54.744 72.8333 56.0268L74.2485 57.3588ZM77.8766 56.129C79.6433 56.129 80.7406 56.5959 81.3934 57.3357L82.8507 56.0498C81.6969 54.7422 79.964 54.1854 77.8766 54.1854V56.129ZM81.4144 57.3588C82.1884 58.1812 82.5955 59.2282 82.5955 60.5769H84.5391C84.5391 58.7942 83.9827 57.2518 82.8297 56.0268L81.4144 57.3588ZM82.5955 60.5769C82.5955 61.9256 82.1884 62.9726 81.4144 63.795L82.8297 65.127C83.9827 63.902 84.5391 62.3596 84.5391 60.5769H82.5955ZM81.3934 63.818C80.7406 64.5578 79.6433 65.0248 77.8766 65.0248V66.9683C79.964 66.9683 81.6969 66.4116 82.8507 65.1039L81.3934 63.818ZM101.96 119.38L101.357 120.143L101.364 120.148L101.96 119.38ZM96.6303 108.27V107.298H95.6333L95.6589 108.295L96.6303 108.27ZM104.76 108.27L105.73 108.208L105.671 107.298H104.76V108.27ZM107.56 113.599L106.885 114.299L106.897 114.31L106.91 114.322L107.56 113.599ZM125.535 113.78L126.111 114.563L126.118 114.558L126.126 114.552L125.535 113.78ZM126.348 103.483L125.76 104.256L125.77 104.264L125.78 104.271L126.348 103.483ZM119.032 101.225L119.135 100.258L119.132 100.258L119.032 101.225ZM113.793 100.683L113.691 101.649L113.693 101.649L113.793 100.683ZM102.592 96.6178L101.989 97.3798L101.999 97.3874L102.592 96.6178ZM100.605 79.1845L101.393 79.7535L101.4 79.7432L100.605 79.1845ZM107.108 74.1261L107.479 75.0243L107.488 75.0208L107.496 75.0173L107.108 74.1261ZM129.871 75.9327L130.436 75.1419L130.436 75.1419L129.871 75.9327ZM135.11 86.6817V87.6535H136.107L136.082 86.6571L135.11 86.6817ZM126.981 86.6817L126.009 86.7121L126.039 87.6535H126.981V86.6817ZM124.271 81.804L123.654 82.5549L123.668 82.5668L123.683 82.5782L124.271 81.804ZM108.192 91.3788L107.542 92.1011L107.551 92.1089L107.56 92.1166L108.192 91.3788ZM114.335 93.4563L114.232 94.4226L114.235 94.4229L114.335 93.4563ZM119.574 93.9983L119.675 93.0318L119.674 93.0317L119.574 93.9983ZM132.039 98.334L131.456 99.1115L131.466 99.1186L132.039 98.334ZM134.116 116.129L133.337 115.549L133.334 115.552L134.116 116.129ZM127.071 121.548L127.447 122.444L127.455 122.441L127.462 122.438L127.071 121.548ZM116.683 122.473C110.486 122.473 105.818 121.144 102.555 118.613L101.364 120.148C105.087 123.037 110.235 124.417 116.683 124.417V122.473ZM102.562 118.618C99.3745 116.101 97.7154 112.678 97.6018 108.245L95.6589 108.295C95.7861 113.256 97.6799 117.24 101.358 120.143L102.562 118.618ZM96.6303 109.242H104.76V107.298H96.6303V109.242ZM103.79 108.333C103.93 110.506 105.018 112.496 106.885 114.299L108.235 112.9C106.609 111.331 105.83 109.768 105.73 108.208L103.79 108.333ZM106.91 114.322C108.988 116.192 112.333 117.01 116.683 117.01V115.067C112.482 115.067 109.745 114.258 108.21 112.877L106.91 114.322ZM116.683 117.01C120.643 117.01 123.83 116.24 126.111 114.563L124.96 112.997C123.145 114.331 120.431 115.067 116.683 115.067V117.01ZM126.126 114.552C128.371 112.835 129.578 110.67 129.578 108.089H127.635C127.635 109.965 126.795 111.594 124.945 113.008L126.126 114.552ZM129.578 108.089C129.578 105.816 128.696 103.975 126.916 102.694L125.78 104.271C127.012 105.158 127.635 106.389 127.635 108.089H129.578ZM126.936 102.709C125.217 101.403 122.563 100.626 119.135 100.258L118.928 102.191C122.245 102.546 124.468 103.274 125.76 104.256L126.936 102.709ZM119.132 100.258L113.893 99.716L113.693 101.649L118.932 102.191L119.132 100.258ZM113.894 99.7161C109.45 99.2483 105.9 97.9411 103.185 95.8481L101.999 97.3874C105.064 99.7507 108.982 101.153 113.691 101.649L113.894 99.7161ZM103.195 95.8559C100.565 93.774 99.228 90.8784 99.228 87.043H97.2844C97.2844 91.3974 98.8376 94.885 101.989 97.3797L103.195 95.8559ZM99.228 87.043C99.228 84.1447 99.9636 81.7319 101.393 79.7534L99.817 78.6155C98.1145 80.9728 97.2844 83.7991 97.2844 87.043H99.228ZM101.4 79.7432C102.849 77.6813 104.862 76.1052 107.479 75.0243L106.737 73.2279C103.814 74.4353 101.492 76.2315 99.8097 78.6258L101.4 79.7432ZM107.496 75.0173C110.122 73.8754 113.178 73.2913 116.683 73.2913V71.3478C112.962 71.3478 109.635 71.968 106.721 73.2349L107.496 75.0173ZM116.683 73.2913C121.962 73.2913 126.143 74.4639 129.306 76.7234L130.436 75.1419C126.855 72.5839 122.243 71.3478 116.683 71.3478V73.2913ZM129.306 76.7234C132.391 78.9268 134.025 82.2026 134.139 86.7063L136.082 86.6571C135.955 81.6463 134.096 77.756 130.436 75.1419L129.306 76.7234ZM135.11 85.7099H126.981V87.6535H135.11V85.7099ZM127.952 86.6514C127.881 84.3887 126.802 82.5045 124.858 81.0298L123.683 82.5782C125.232 83.7531 125.96 85.1207 126.009 86.7121L127.952 86.6514ZM124.888 81.0531C122.955 79.4656 120.164 78.7547 116.683 78.7547V80.6982C119.947 80.6982 122.214 81.3723 123.654 82.5549L124.888 81.0531ZM116.683 78.7547C113.199 78.7547 110.388 79.467 108.401 81.0426L109.609 82.5654C111.115 81.3709 113.423 80.6982 116.683 80.6982V78.7547ZM108.401 81.0426C106.438 82.5997 105.414 84.6195 105.414 87.043H107.358C107.358 85.2512 108.08 83.7783 109.609 82.5654L108.401 81.0426ZM105.414 87.043C105.414 89.0898 106.108 90.8105 107.542 92.1011L108.842 90.6565C107.868 89.7791 107.358 88.6093 107.358 87.043H105.414ZM107.56 92.1166C109.046 93.3908 111.33 94.1139 114.232 94.4226L114.437 92.49C111.679 92.1966 109.867 91.5346 108.825 90.6409L107.56 92.1166ZM114.235 94.4229L119.474 94.9649L119.674 93.0317L114.435 92.4897L114.235 94.4229ZM119.473 94.9648C124.533 95.4943 128.504 96.8977 131.456 99.1114L132.622 97.5566C129.311 95.0733 124.972 93.5862 119.675 93.0318L119.473 94.9648ZM131.466 99.1186C134.322 101.206 135.764 104.153 135.764 108.089H137.708C137.708 103.595 136.018 100.038 132.612 97.5494L131.466 99.1186ZM135.764 108.089C135.764 110.898 134.955 113.373 133.337 115.549L134.896 116.709C136.771 114.187 137.708 111.303 137.708 108.089H135.764ZM133.334 115.552C131.764 117.684 129.56 119.392 126.68 120.659L127.462 122.438C130.604 121.056 133.097 119.15 134.899 116.705L133.334 115.552ZM126.695 120.652C123.824 121.858 120.493 122.473 116.683 122.473V124.417C120.701 124.417 124.296 123.768 127.447 122.444L126.695 120.652ZM159.149 121.458L158.729 122.334L158.736 122.337L159.149 121.458ZM151.652 115.677L150.895 116.286L150.903 116.295L151.652 115.677ZM147.136 107.548L146.212 107.849L146.215 107.858L146.218 107.866L147.136 107.548ZM147.136 88.0366L146.218 87.7181L146.215 87.7265L146.212 87.735L147.136 88.0366ZM151.652 80.0878L150.912 79.4584L150.91 79.46L151.652 80.0878ZM159.24 74.3068L159.66 75.1828L159.66 75.1828L159.24 74.3068ZM180.647 74.3971L180.233 75.276L180.239 75.2789L180.647 74.3971ZM188.416 80.8104L187.618 81.3653L187.625 81.3753L187.632 81.385L188.416 80.8104ZM191.758 90.4755V91.4473H192.794L192.728 90.4129L191.758 90.4755ZM183.448 90.4755L182.485 90.6102L182.602 91.4473H183.448V90.4755ZM179.293 82.9783L178.654 83.7107L178.659 83.7155L178.665 83.7201L179.293 82.9783ZM161.227 82.2556L160.678 81.4536L160.678 81.4536L161.227 82.2556ZM156.078 88.6689L156.973 89.0469L156.973 89.0469L156.078 88.6689ZM156.078 107.006L155.18 107.377L155.183 107.384L156.078 107.006ZM161.227 113.509L160.664 114.301L160.676 114.31L160.688 114.318L161.227 113.509ZM177.034 114.412L176.61 113.538L176.61 113.538L177.034 114.412ZM181.822 110.528L182.603 111.107L182.603 111.107L181.822 110.528ZM183.99 105.018V104.047H183.125L183.024 104.905L183.99 105.018ZM192.3 105.018L193.27 105.065L193.319 104.047H192.3V105.018ZM188.958 114.864L188.176 114.286L188.168 114.298L188.958 114.864ZM181.009 121.368L181.417 122.25L181.424 122.246L181.009 121.368ZM169.989 122.654C165.945 122.654 162.479 121.951 159.563 120.579L158.736 122.337C161.962 123.856 165.722 124.598 169.989 124.598V122.654ZM159.57 120.582C156.677 119.193 154.293 117.351 152.402 115.059L150.903 116.295C152.986 118.82 155.6 120.832 158.729 122.334L159.57 120.582ZM152.409 115.068C150.491 112.684 149.04 110.073 148.054 107.229L146.218 107.866C147.278 110.924 148.839 113.732 150.895 116.286L152.409 115.068ZM148.059 107.246C147.126 104.387 146.662 101.538 146.662 98.6953H144.719C144.719 101.754 145.218 104.806 146.212 107.849L148.059 107.246ZM146.662 98.6953V97.0694H144.719V98.6953H146.662ZM146.662 97.0694C146.662 94.1018 147.127 91.1927 148.059 88.3383L146.212 87.735C145.217 90.782 144.719 93.8947 144.719 97.0694H146.662ZM148.054 88.3551C149.039 85.5157 150.485 82.9712 152.394 80.7155L150.91 79.46C148.845 81.9013 147.28 84.6561 146.218 87.7181L148.054 88.3551ZM152.393 80.7171C154.347 78.4179 156.765 76.5725 159.66 75.1828L158.819 73.4307C155.693 74.9315 153.052 76.9401 150.912 79.4584L152.393 80.7171ZM159.66 75.1828C162.515 73.8123 165.889 73.1106 169.808 73.1106V71.1671C165.658 71.1671 161.986 71.9107 158.819 73.4307L159.66 75.1828ZM169.808 73.1106C173.72 73.1106 177.188 73.8399 180.233 75.276L181.062 73.5182C177.723 71.9434 173.966 71.1671 169.808 71.1671V73.1106ZM180.239 75.2789C183.345 76.7166 185.796 78.7457 187.618 81.3653L189.213 80.2554C187.182 77.3349 184.454 75.0885 181.056 73.5152L180.239 75.2789ZM187.632 81.385C189.497 83.9288 190.558 86.9678 190.788 90.5381L192.728 90.4129C192.476 86.5161 191.308 83.1116 189.199 80.2357L187.632 81.385ZM191.758 89.5037H183.448V91.4473H191.758V89.5037ZM184.41 90.3408C183.955 87.0901 182.449 84.3759 179.92 82.2364L178.665 83.7201C180.833 85.555 182.097 87.839 182.485 90.6102L184.41 90.3408ZM179.931 82.2458C177.361 80.0053 173.951 78.9353 169.808 78.9353V80.8789C173.614 80.8789 176.527 81.8563 178.654 83.7107L179.931 82.2458ZM169.808 78.9353C166.227 78.9353 163.163 79.7535 160.678 81.4536L161.776 83.0576C163.867 81.6264 166.524 80.8789 169.808 80.8789V78.9353ZM160.678 81.4536C158.227 83.131 156.395 85.4204 155.183 88.2909L156.973 89.0469C158.05 86.4977 159.651 84.5116 161.776 83.0576L160.678 81.4536ZM155.183 88.2909C153.981 91.1387 153.39 94.3415 153.39 97.8824H155.334C155.334 94.5584 155.888 91.6189 156.973 89.0469L155.183 88.2909ZM153.39 97.8824C153.39 101.308 153.982 104.477 155.18 107.377L156.976 106.635C155.886 103.994 155.334 101.081 155.334 97.8824H153.39ZM155.183 107.384C156.394 110.251 158.221 112.566 160.664 114.301L161.79 112.717C159.656 111.201 158.051 109.179 156.973 106.628L155.183 107.384ZM160.688 114.318C163.23 116.013 166.35 116.829 169.989 116.829V114.886C166.642 114.886 163.921 114.137 161.766 112.701L160.688 114.318ZM169.989 116.829C172.813 116.829 175.312 116.327 177.458 115.287L176.61 113.538C174.782 114.425 172.584 114.886 169.989 114.886V116.829ZM177.458 115.287C179.573 114.261 181.297 112.87 182.603 111.107L181.041 109.95C179.938 111.439 178.47 112.637 176.61 113.538L177.458 115.287ZM182.603 111.107C183.91 109.342 184.694 107.344 184.955 105.132L183.024 104.905C182.803 106.787 182.142 108.463 181.041 109.95L182.603 111.107ZM183.99 105.99H192.3V104.047H183.99V105.99ZM191.329 104.972C191.157 108.594 190.098 111.687 188.176 114.286L189.739 115.442C191.912 112.501 193.082 109.03 193.27 105.065L191.329 104.972ZM188.168 114.298C186.284 116.924 183.768 118.989 180.593 120.489L181.424 122.246C184.874 120.615 187.657 118.345 189.747 115.431L188.168 114.298ZM180.601 120.486C177.494 121.924 173.963 122.654 169.989 122.654V124.598C174.204 124.598 178.02 123.822 181.417 122.25L180.601 120.486ZM207.063 115.767L206.341 116.417L206.35 116.427L206.359 116.436L207.063 115.767ZM202.095 107.728L201.183 108.063L201.186 108.071L201.189 108.079L202.095 107.728ZM202.186 88.0366L203.092 88.388L203.094 88.3818L202.186 88.0366ZM207.244 79.9974L207.949 80.6663L207.958 80.6573L207.244 79.9974ZM215.374 74.3068L215.761 75.1982L215.768 75.1952L215.775 75.192L215.374 74.3068ZM237.233 74.3068L236.832 75.192L236.839 75.1952L236.846 75.1982L237.233 74.3068ZM245.363 79.9974L244.649 80.6573L244.658 80.6663L245.363 79.9974ZM250.421 88.0366L249.513 88.3818L249.515 88.3879L250.421 88.0366ZM250.421 107.728L249.515 107.377L249.512 107.385L249.509 107.393L250.421 107.728ZM245.453 115.767L244.74 115.107L244.739 115.108L245.453 115.767ZM237.414 121.458L237.815 122.343L237.815 122.343L237.414 121.458ZM235.517 113.509L236.028 114.335L236.034 114.332L235.517 113.509ZM241.388 107.006L240.523 106.563L240.519 106.571L240.515 106.579L241.388 107.006ZM241.388 88.6689L240.523 89.1112L240.523 89.1112L241.388 88.6689ZM235.427 82.2556L234.915 83.0819L234.924 83.0872L235.427 82.2556ZM217.18 82.2556L217.683 83.0872L217.683 83.0872L217.18 82.2556ZM211.219 88.6689L212.084 89.1112L211.219 88.6689ZM211.128 107.006L210.255 107.432L210.259 107.44L210.263 107.448L211.128 107.006ZM217 113.509L216.474 114.327L216.485 114.334L216.497 114.341L217 113.509ZM226.303 122.654C222.199 122.654 218.637 121.951 215.594 120.573L214.792 122.343C218.133 123.856 221.977 124.598 226.303 124.598V122.654ZM215.594 120.573C212.507 119.175 209.903 117.349 207.768 115.099L206.359 116.436C208.68 118.883 211.496 120.851 214.792 122.343L215.594 120.573ZM207.786 115.117C205.695 112.794 204.102 110.215 203.001 107.377L201.189 108.079C202.377 111.143 204.096 113.923 206.341 116.417L207.786 115.117ZM203.008 107.393C201.962 104.547 201.441 101.649 201.441 98.6953H199.498C199.498 101.884 200.061 105.008 201.183 108.063L203.008 107.393ZM201.441 98.6953V97.0694H199.498V98.6953H201.441ZM201.441 97.0694C201.441 94.1221 201.99 91.2301 203.092 88.3879L201.28 87.6853C200.093 90.7446 199.498 93.8744 199.498 97.0694H201.441ZM203.094 88.3818C204.192 85.4918 205.809 82.9219 207.949 80.6663L206.539 79.3286C204.223 81.77 202.467 84.5596 201.277 87.6914L203.094 88.3818ZM207.958 80.6573C210.089 78.3535 212.685 76.5328 215.761 75.1982L214.987 73.4153C211.679 74.8507 208.856 76.8239 206.531 79.3376L207.958 80.6573ZM215.775 75.192C218.821 73.8126 222.324 73.1106 226.303 73.1106V71.1671C222.093 71.1671 218.31 71.9104 214.973 73.4215L215.775 75.192ZM226.303 73.1106C230.283 73.1106 233.786 73.8126 236.832 75.192L237.634 73.4215C234.297 71.9104 230.513 71.1671 226.303 71.1671V73.1106ZM236.846 75.1982C239.922 76.5328 242.518 78.3535 244.649 80.6573L246.076 79.3376C243.751 76.8239 240.928 74.8507 237.62 73.4153L236.846 75.1982ZM244.658 80.6663C246.798 82.9219 248.414 85.4918 249.513 88.3818L251.329 87.6914C250.139 84.5596 248.384 81.77 246.068 79.3286L244.658 80.6663ZM249.515 88.3879C250.617 91.2301 251.165 94.1221 251.165 97.0694H253.109C253.109 93.8744 252.513 90.7446 251.327 87.6853L249.515 88.3879ZM251.165 97.0694V98.6953H253.109V97.0694H251.165ZM251.165 98.6953C251.165 101.643 250.617 104.535 249.515 107.377L251.327 108.079C252.513 105.02 253.109 101.89 253.109 98.6953H251.165ZM249.509 107.393C248.471 110.218 246.885 112.789 244.74 115.107L246.166 116.427C248.478 113.929 250.203 111.14 251.333 108.063L249.509 107.393ZM244.739 115.108C242.667 117.352 240.097 119.176 237.013 120.573L237.815 122.343C241.113 120.85 243.903 118.879 246.167 116.426L244.739 115.108ZM237.013 120.573C233.97 121.951 230.408 122.654 226.303 122.654V124.598C230.629 124.598 234.474 123.856 237.815 122.343L237.013 120.573ZM226.303 116.829C230.058 116.829 233.315 116.015 236.028 114.335L235.005 112.683C232.66 114.135 229.775 114.886 226.303 114.886V116.829ZM236.034 114.332C238.774 112.611 240.856 110.307 242.261 107.432L240.515 106.579C239.271 109.124 237.438 111.155 235 112.686L236.034 114.332ZM242.253 107.448C243.716 104.587 244.437 101.392 244.437 97.8824H242.494C242.494 101.118 241.831 104.005 240.523 106.563L242.253 107.448ZM244.437 97.8824C244.437 94.316 243.717 91.0901 242.253 88.2267L240.523 89.1112C241.829 91.6675 242.494 94.5838 242.494 97.8824H244.437ZM242.253 88.2267C240.787 85.3568 238.674 83.0838 235.929 81.4241L234.924 83.0872C237.357 84.5588 239.22 86.5613 240.523 89.1112L242.253 88.2267ZM235.938 81.4294C233.228 79.7515 230.002 78.9353 226.303 78.9353V80.8789C229.711 80.8789 232.567 81.6284 234.915 83.0819L235.938 81.4294ZM226.303 78.9353C222.661 78.9353 219.441 79.7533 216.677 81.4241L217.683 83.0872C220.099 81.6266 222.96 80.8789 226.303 80.8789V78.9353ZM216.677 81.4241C213.932 83.0838 211.82 85.3568 210.353 88.2267L212.084 89.1112C213.387 86.5613 215.249 84.5588 217.683 83.0872L216.677 81.4241ZM210.353 88.2267C208.89 91.0901 208.169 94.316 208.169 97.8824H210.113C210.113 94.5838 210.777 91.6675 212.084 89.1112L210.353 88.2267ZM208.169 97.8824C208.169 101.385 208.858 104.575 210.255 107.432L212.001 106.579C210.749 104.017 210.113 101.124 210.113 97.8824H208.169ZM210.263 107.448C211.725 110.309 213.799 112.607 216.474 114.327L217.525 112.692C215.142 111.16 213.301 109.122 211.994 106.563L210.263 107.448ZM216.497 114.341C219.265 116.015 222.548 116.829 226.303 116.829V114.886C222.833 114.886 219.913 114.135 217.502 112.678L216.497 114.341ZM265.125 140.066H264.153V141.037H265.125V140.066ZM265.125 73.7648V72.793H264.153V73.7648H265.125ZM271.99 73.7648H272.961V72.793H271.99V73.7648ZM271.99 94.6306L271.882 95.5964L272.961 95.7163V94.6306H271.99ZM270.364 94.4499L269.394 94.3935L269.34 95.3139L270.256 95.4157L270.364 94.4499ZM273.616 81.804L272.776 81.3153L272.773 81.3202L273.616 81.804ZM281.113 74.4874L281.554 75.3532L281.554 75.3532L281.113 74.4874ZM300.624 74.1261L300.212 75.0062L300.219 75.0095L300.624 74.1261ZM308.031 79.5458L308.755 78.8978L308.755 78.8978L308.031 79.5458ZM312.728 87.4947L313.642 87.1655L313.642 87.1655L312.728 87.4947ZM312.637 108.27L311.729 107.925L311.729 107.925L312.637 108.27ZM307.76 116.219L307.045 115.561L307.035 115.571L307.76 116.219ZM300.353 121.639L299.948 120.755L299.941 120.759L300.353 121.639ZM281.113 121.368L281.534 120.492L281.534 120.492L281.113 121.368ZM273.345 114.051L274.175 113.547L274.175 113.547L273.345 114.051ZM269.822 100.773L270.673 100.305L268.851 100.826L269.822 100.773ZM273.796 107.999H274.768V107.75L274.648 107.531L273.796 107.999ZM273.796 140.066V141.037H274.768V140.066H273.796ZM298.094 113.78L298.61 114.604L298.617 114.6L298.624 114.595L298.094 113.78ZM303.695 107.367L304.568 107.794L304.571 107.786L303.695 107.367ZM303.695 88.3979L304.568 87.9711L304.568 87.9711L303.695 88.3979ZM298.094 82.075L297.565 82.8897L297.572 82.8944L297.579 82.899L298.094 82.075ZM281.564 81.7137L282.007 82.5786L282.016 82.5743L282.024 82.5699L281.564 81.7137ZM275.603 87.314L274.773 86.8081L274.769 86.814L275.603 87.314ZM275.693 108.722L274.875 109.246L274.875 109.246L275.693 108.722ZM281.655 114.141L281.212 115.006L281.655 114.141ZM266.096 140.066V73.7648H264.153V140.066H266.096ZM265.125 74.7365H271.99V72.793H265.125V74.7365ZM271.018 73.7648V94.6306H272.961V73.7648H271.018ZM272.097 93.6648L270.471 93.4841L270.256 95.4157L271.882 95.5964L272.097 93.6648ZM271.334 94.5063C271.629 89.4235 272.69 85.3687 274.458 82.2878L272.773 81.3202C270.808 84.7429 269.7 89.1187 269.394 94.3935L271.334 94.5063ZM274.456 82.2927C276.299 79.1234 278.668 76.8248 281.554 75.3532L280.671 73.6217C277.416 75.2814 274.786 77.8605 272.776 81.3153L274.456 82.2927ZM281.554 75.3532C284.482 73.8605 287.672 73.1106 291.139 73.1106V71.1671C287.38 71.1671 283.886 71.9829 280.671 73.6217L281.554 75.3532ZM291.139 73.1106C294.506 73.1106 297.525 73.7485 300.212 75.0062L301.036 73.246C298.062 71.854 294.757 71.1671 291.139 71.1671V73.1106ZM300.219 75.0095C302.992 76.2806 305.351 78.0086 307.306 80.1938L308.755 78.8978C306.615 76.5063 304.036 74.6212 301.029 73.2427L300.219 75.0095ZM307.306 80.1938C309.267 82.3851 310.77 84.9253 311.813 87.8238L313.642 87.1655C312.518 84.0421 310.889 81.2831 308.755 78.8978L307.306 80.1938ZM311.813 87.8238C312.857 90.7236 313.382 93.8033 313.382 97.0694H315.325C315.325 93.5911 314.766 90.2876 313.642 87.1655L311.813 87.8238ZM313.382 97.0694V98.6953H315.325V97.0694H313.382ZM313.382 98.6953C313.382 101.955 312.829 105.029 311.729 107.925L313.546 108.615C314.734 105.489 315.325 102.18 315.325 98.6953H313.382ZM311.729 107.925C310.627 110.824 309.066 113.367 307.045 115.561L308.474 116.877C310.669 114.495 312.359 111.738 313.546 108.615L311.729 107.925ZM307.035 115.571C305.08 117.756 302.721 119.484 299.948 120.755L300.758 122.522C303.765 121.144 306.344 119.258 308.484 116.867L307.035 115.571ZM299.941 120.759C297.252 122.017 294.263 122.654 290.959 122.654V124.598C294.519 124.598 297.793 123.91 300.765 122.519L299.941 120.759ZM290.959 122.654C287.674 122.654 284.536 121.935 281.534 120.492L280.692 122.244C283.953 123.811 287.378 124.598 290.959 124.598V122.654ZM281.534 120.492C278.594 119.079 276.139 116.781 274.175 113.547L272.514 114.555C274.645 118.066 277.369 120.646 280.692 122.244L281.534 120.492ZM274.175 113.547C272.237 110.354 271.088 106.099 270.792 100.72L268.851 100.826C269.158 106.407 270.358 111.004 272.514 114.555L274.175 113.547ZM268.97 101.241L272.945 108.467L274.648 107.531L270.673 100.305L268.97 101.241ZM272.824 107.999V140.066H274.768V107.999H272.824ZM273.796 139.094H265.125V141.037H273.796V139.094ZM289.604 117.01C293.011 117.01 296.025 116.22 298.61 114.604L297.579 112.956C295.347 114.352 292.7 115.067 289.604 115.067V117.01ZM298.624 114.595C301.188 112.928 303.17 110.653 304.568 107.794L302.822 106.94C301.57 109.5 299.819 111.5 297.565 112.965L298.624 114.595ZM304.571 107.786C305.968 104.866 306.654 101.558 306.654 97.8824H304.71C304.71 101.313 304.071 104.327 302.818 106.948L304.571 107.786ZM306.654 97.8824C306.654 94.1503 305.969 90.8376 304.568 87.9711L302.822 88.8247C304.07 91.3779 304.71 94.3883 304.71 97.8824H306.654ZM304.568 87.9711C303.168 85.1086 301.182 82.8588 298.61 81.2509L297.579 82.899C299.824 84.3021 301.572 86.2676 302.822 88.8248L304.568 87.9711ZM298.624 81.2602C296.038 79.579 293.018 78.7547 289.604 78.7547V80.6982C292.693 80.6982 295.334 81.4396 297.565 82.8897L298.624 81.2602ZM289.604 78.7547C286.558 78.7547 283.72 79.4543 281.105 80.8574L282.024 82.5699C284.347 81.3234 286.868 80.6982 289.604 80.6982V78.7547ZM281.121 80.8487C278.486 82.1986 276.368 84.1929 274.773 86.8081L276.432 87.8199C277.849 85.4972 279.705 83.7579 282.007 82.5786L281.121 80.8487ZM274.769 86.814C273.215 89.4041 272.463 92.5063 272.463 96.0758H274.407C274.407 92.7805 275.1 90.0414 276.436 87.814L274.769 86.814ZM272.463 96.0758V100.231H274.407V96.0758H272.463ZM272.463 100.231C272.463 103.694 273.252 106.714 274.875 109.246L276.511 108.197C275.124 106.033 274.407 103.392 274.407 100.231H272.463ZM274.875 109.246C276.473 111.739 278.589 113.663 281.212 115.006L282.098 113.277C279.783 112.091 277.925 110.402 276.511 108.197L274.875 109.246ZM281.212 115.006C283.821 116.343 286.623 117.01 289.604 117.01V115.067C286.924 115.067 284.427 114.469 282.098 113.277L281.212 115.006ZM323.268 140.788H322.296V141.76H323.268V140.788ZM323.268 133.02V132.048H322.296V133.02H323.268ZM335.372 132.207L335.064 131.285L335.041 131.293L335.018 131.302L335.372 132.207ZM338.895 129.678L338.136 129.071L338.126 129.083L338.117 129.095L338.895 129.678ZM341.243 124.89L342.173 125.172L342.175 125.167L341.243 124.89ZM356.418 73.7648V72.793H355.693L355.487 73.4883L356.418 73.7648ZM364.909 73.7648L365.84 74.045L366.217 72.793H364.909V73.7648ZM348.831 127.149L349.761 127.43L349.761 127.429L348.831 127.149ZM344.766 134.917L344.036 134.275L344.031 134.281L344.027 134.286L344.766 134.917ZM338.353 139.343L338.026 138.428L338.012 138.433L337.999 138.438L338.353 139.343ZM337.991 120.916H337.02V121.888H337.991V120.916ZM337.991 113.69V112.718H337.02V113.69H337.991ZM348.469 113.69H349.441V112.718H348.469V113.69ZM348.469 120.916V121.888H349.441V120.916H348.469ZM337.088 120.916L336.175 121.25L336.409 121.888H337.088V120.916ZM319.835 73.7648V72.793H318.445L318.923 74.0987L319.835 73.7648ZM328.687 73.7648L329.605 73.4433L329.377 72.793H328.687V73.7648ZM345.218 120.916V121.888H346.588L346.135 120.595L345.218 120.916ZM324.24 140.788V133.02H322.296V140.788H324.24ZM323.268 133.992H330.223V132.048H323.268V133.992ZM330.223 133.992C332.349 133.992 334.194 133.711 335.726 133.112L335.018 131.302C333.779 131.787 332.192 132.048 330.223 132.048V133.992ZM335.679 133.129C337.309 132.586 338.649 131.625 339.672 130.261L338.117 129.095C337.334 130.139 336.325 130.865 335.064 131.285L335.679 133.129ZM339.653 130.285C340.716 128.957 341.547 127.239 342.173 125.172L340.313 124.609C339.735 126.516 339 127.99 338.136 129.071L339.653 130.285ZM342.175 125.167L357.35 74.0413L355.487 73.4883L340.311 124.614L342.175 125.167ZM356.418 74.7365H364.909V72.793H356.418V74.7365ZM363.979 73.4845L347.9 126.868L349.761 127.429L365.84 74.045L363.979 73.4845ZM347.9 126.868C346.967 129.96 345.67 132.416 344.036 134.275L345.496 135.558C347.355 133.443 348.767 130.721 349.761 127.43L347.9 126.868ZM344.027 134.286C342.39 136.205 340.395 137.582 338.026 138.428L338.679 140.258C341.369 139.298 343.649 137.724 345.505 135.548L344.027 134.286ZM337.999 138.438C335.667 139.348 332.901 139.816 329.681 139.816V141.76C333.085 141.76 336.1 141.265 338.706 140.248L337.999 138.438ZM329.681 139.816H323.268V141.76H329.681V139.816ZM338.963 120.916V113.69H337.02V120.916H338.963ZM337.991 114.662H348.469V112.718H337.991V114.662ZM347.498 113.69V120.916H349.441V113.69H347.498ZM348.469 119.944H337.991V121.888H348.469V119.944ZM338.001 120.582L320.748 73.4309L318.923 74.0987L336.175 121.25L338.001 120.582ZM319.835 74.7365H328.687V72.793H319.835V74.7365ZM327.77 74.0863L344.3 121.238L346.135 120.595L329.605 73.4433L327.77 74.0863ZM345.218 119.944H337.088V121.888H345.218V119.944ZM409.159 122L408.402 122.61L408.694 122.972H409.159V122ZM391.003 99.5083L391.759 98.8979L391.467 98.5365H391.003V99.5083ZM383.054 99.5083L382.317 98.8748L380.937 100.48H383.054V99.5083ZM405.184 73.7648V72.793H404.738L404.447 73.1313L405.184 73.7648ZM414.307 73.7648L415.043 74.4L416.431 72.793H414.307V73.7648ZM394.254 96.9791L393.292 96.847L392.846 100.097L394.99 97.6144L394.254 96.9791ZM394.887 92.3724L395.638 91.7561L394.227 90.0351L393.924 92.2402L394.887 92.3724ZM419.185 122V122.972H421.239L419.936 121.384L419.185 122ZM375.918 122H374.946V122.972H375.918V122ZM375.918 56.0605V55.0887H374.946V56.0605H375.918ZM384.589 56.0605H385.561V55.0887H384.589V56.0605ZM384.589 122V122.972H385.561V122H384.589ZM409.915 121.39L391.759 98.8979L390.246 100.119L408.402 122.61L409.915 121.39ZM391.003 98.5365H383.054V100.48H391.003V98.5365ZM383.791 100.142L405.921 74.3983L404.447 73.1313L382.317 98.8748L383.791 100.142ZM405.184 74.7365H414.307V72.793H405.184V74.7365ZM413.572 73.1295L393.519 96.3439L394.99 97.6144L415.043 74.4L413.572 73.1295ZM395.217 97.1113L395.849 92.5045L393.924 92.2402L393.292 96.847L395.217 97.1113ZM394.135 92.9886L418.434 122.616L419.936 121.384L395.638 91.7561L394.135 92.9886ZM419.185 121.028H409.159V122.972H419.185V121.028ZM376.89 122V56.0605H374.946V122H376.89ZM375.918 57.0322H384.589V55.0887H375.918V57.0322ZM383.618 56.0605V122H385.561V56.0605H383.618ZM384.589 121.028H375.918V122.972H384.589V121.028ZM430.046 122H429.074V122.972H430.046V122ZM430.046 73.7648V72.793H429.074V73.7648H430.046ZM438.718 73.7648H439.689V72.793H438.718V73.7648ZM438.718 122V122.972H439.689V122H438.718ZM422.639 80.6297H421.668V81.6015H422.639V80.6297ZM422.639 73.7648V72.793H421.668V73.7648H422.639ZM438.718 73.7648H439.689V72.793H438.718V73.7648ZM438.718 80.6297V81.6015H439.689V80.6297H438.718ZM428.149 64.461L427.421 65.1039L427.431 65.1156L427.442 65.127L428.149 64.461ZM428.149 56.6928L427.442 56.0268L427.431 56.0381L427.421 56.0498L428.149 56.6928ZM436.731 56.6928L436.002 57.3357L436.012 57.3474L436.023 57.3588L436.731 56.6928ZM436.731 64.461L436.023 63.795L436.012 63.8063L436.002 63.818L436.731 64.461ZM431.018 122V73.7648H429.074V122H431.018ZM430.046 74.7365H438.718V72.793H430.046V74.7365ZM437.746 73.7648V122H439.689V73.7648H437.746ZM438.718 121.028H430.046V122.972H438.718V121.028ZM423.611 80.6297V73.7648H421.668V80.6297H423.611ZM422.639 74.7365H438.718V72.793H422.639V74.7365ZM437.746 73.7648V80.6297H439.689V73.7648H437.746ZM438.718 79.658H422.639V81.6015H438.718V79.658ZM432.485 65.0248C430.723 65.0248 429.577 64.5597 428.857 63.795L427.442 65.127C428.649 66.4097 430.393 66.9683 432.485 66.9683V65.0248ZM428.878 63.818C428.154 62.9978 427.766 61.9428 427.766 60.5769H425.823C425.823 62.3423 426.338 63.8767 427.421 65.1039L428.878 63.818ZM427.766 60.5769C427.766 59.2109 428.154 58.156 428.878 57.3357L427.421 56.0498C426.338 57.277 425.823 58.8114 425.823 60.5769H427.766ZM428.857 57.3588C429.577 56.5941 430.723 56.129 432.485 56.129V54.1854C430.393 54.1854 428.649 54.744 427.442 56.0268L428.857 57.3588ZM432.485 56.129C434.252 56.129 435.349 56.5959 436.002 57.3357L437.459 56.0498C436.305 54.7422 434.572 54.1854 432.485 54.1854V56.129ZM436.023 57.3588C436.797 58.1812 437.204 59.2282 437.204 60.5769H439.148C439.148 58.7942 438.591 57.2518 437.438 56.0268L436.023 57.3588ZM437.204 60.5769C437.204 61.9256 436.797 62.9726 436.023 63.795L437.438 65.127C438.591 63.902 439.148 62.3596 439.148 60.5769H437.204ZM436.002 63.818C435.349 64.5578 434.252 65.0248 432.485 65.0248V66.9683C434.572 66.9683 436.305 66.4116 437.459 65.1039L436.002 63.818ZM464.878 121.006L464.521 121.91L464.528 121.913L464.878 121.006ZM458.826 115.767L457.974 116.234L457.981 116.246L457.988 116.258L458.826 115.767ZM456.749 59.1316V58.1599H455.777V59.1316H456.749ZM465.059 59.1316H466.031V58.1599H465.059V59.1316ZM467.136 112.696L466.435 113.369L466.449 113.384L466.464 113.398L467.136 112.696ZM481.679 114.774H482.651V113.802H481.679V114.774ZM481.679 122.542V123.514H482.651V122.542H481.679ZM448.439 80.2684H447.467V81.2402H448.439V80.2684ZM448.439 73.7648V72.793H447.467V73.7648H448.439ZM481.679 73.7648H482.651V72.793H481.679V73.7648ZM481.679 80.2684V81.2402H482.651V80.2684H481.679ZM474.272 121.57C470.748 121.57 467.741 121.071 465.229 120.1L464.528 121.913C467.315 122.99 470.571 123.514 474.272 123.514V121.57ZM465.236 120.103C462.854 119.161 461.004 117.563 459.665 115.276L457.988 116.258C459.539 118.909 461.724 120.804 464.521 121.91L465.236 120.103ZM459.679 115.301C458.401 112.967 457.721 109.746 457.721 105.56H455.777C455.777 109.926 456.482 113.509 457.974 116.234L459.679 115.301ZM457.721 105.56V59.1316H455.777V105.56H457.721ZM456.749 60.1034H465.059V58.1599H456.749V60.1034ZM464.087 59.1316V106.644H466.031V59.1316H464.087ZM464.087 106.644C464.087 109.408 464.83 111.694 466.435 113.369L467.838 112.024C466.673 110.808 466.031 109.059 466.031 106.644H464.087ZM466.464 113.398C468.139 115.003 470.425 115.746 473.188 115.746V113.802C470.773 113.802 469.025 113.16 467.809 111.995L466.464 113.398ZM473.188 115.746H481.679V113.802H473.188V115.746ZM480.708 114.774V122.542H482.651V114.774H480.708ZM481.679 121.57H474.272V123.514H481.679V121.57ZM449.41 80.2684V73.7648H447.467V80.2684H449.41ZM448.439 74.7365H481.679V72.793H448.439V74.7365ZM480.708 73.7648V80.2684H482.651V73.7648H480.708ZM481.679 79.2966H448.439V81.2402H481.679V79.2966Z" fill="black"/>
<g filter="url(#filter2_d_1_2)">
<path fill-rule="evenodd" clip-rule="evenodd" d="M528.313 111.999C524.688 111.999 521.75 109.061 521.75 105.437L521.75 99.8118C521.75 98.2585 523.009 96.9993 524.563 96.9993C526.116 96.9993 527.375 98.2585 527.375 99.8118L527.375 105.437C527.375 105.955 527.795 106.374 528.313 106.374L556.438 106.374C556.955 106.374 557.375 105.955 557.375 105.437L557.375 77.3118C557.375 76.794 556.955 76.3743 556.438 76.3743L550.813 76.3743C549.259 76.3743 548 75.1151 548 73.5618C548 72.0085 549.259 70.7493 550.813 70.7493L556.438 70.7493C560.062 70.7493 563 73.6874 563 77.3118L563 105.437C563 109.061 560.062 111.999 556.438 111.999L528.313 111.999Z" fill="#333333"/>
<path fill-rule="evenodd" clip-rule="evenodd" d="M509.562 93.2493C505.938 93.2493 503 90.3111 503 86.6868L503 58.5618C503 54.9374 505.938 51.9993 509.562 51.9993L537.687 51.9993C541.312 51.9993 544.25 54.9374 544.25 58.5618L544.25 86.6868C544.25 90.3111 541.312 93.2493 537.688 93.2493L509.562 93.2493ZM508.625 86.6868C508.625 87.2045 509.045 87.6243 509.562 87.6243L537.688 87.6243C538.205 87.6243 538.625 87.2045 538.625 86.6868L538.625 58.5618C538.625 58.044 538.205 57.6243 537.687 57.6243L509.562 57.6243C509.045 57.6243 508.625 58.044 508.625 58.5618L508.625 86.6868Z" fill="#333333"/>
</g>
<rect x="0.375" y="0.375" width="602.25" height="129.25" rx="23.625" stroke="#858585" stroke-width="0.75"/>
<defs>
<filter id="filter0_d_1_2" x="489.628" y="16.7931" width="101.96" height="112.206" filterUnits="userSpaceOnUse" color-interpolation-filters="sRGB">
<feFlood flood-opacity="0" result="BackgroundImageFix"/>
<feColorMatrix in="SourceAlpha" type="matrix" values="0 0 0 0 0 0 0 0 0 0 0 0 0 0 0 0 0 0 127 0" result="hardAlpha"/>
<feOffset dy="4"/>
<feGaussianBlur stdDeviation="2"/>
<feComposite in2="hardAlpha" operator="out"/>
<feColorMatrix type="matrix" values="0 0 0 0 0 0 0 0 0 0 0 0 0 0 0 0 0 0 0.25 0"/>
<feBlend mode="normal" in2="BackgroundImageFix" result="effect1_dropShadow_1_2"/>
<feBlend mode="normal" in="SourceGraphic" in2="effect1_dropShadow_1_2" result="shape"/>
</filter>
<filter id="filter1_d_1_2" x="489.628" y="16.7931" width="101.96" height="112.206" filterUnits="userSpaceOnUse" color-interpolation-filters="sRGB">
<feFlood flood-opacity="0" result="BackgroundImageFix"/>
<feColorMatrix in="SourceAlpha" type="matrix" values="0 0 0 0 0 0 0 0 0 0 0 0 0 0 0 0 0 0 127 0" result="hardAlpha"/>
<feOffset dy="4"/>
<feGaussianBlur stdDeviation="2"/>
<feComposite in2="hardAlpha" operator="out"/>
<feColorMatrix type="matrix" values="0 0 0 0 0 0 0 0 0 0 0 0 0 0 0 0 0 0 0.25 0"/>
<feBlend mode="normal" in2="BackgroundImageFix" result="effect1_dropShadow_1_2"/>
<feBlend mode="normal" in="SourceGraphic" in2="effect1_dropShadow_1_2" result="shape"/>
</filter>
<filter id="filter2_d_1_2" x="499" y="51.9993" width="68" height="68" filterUnits="userSpaceOnUse" color-interpolation-filters="sRGB">
<feFlood flood-opacity="0" result="BackgroundImageFix"/>
<feColorMatrix in="SourceAlpha" type="matrix" values="0 0 0 0 0 0 0 0 0 0 0 0 0 0 0 0 0 0 127 0" result="hardAlpha"/>
<feOffset dy="4"/>
<feGaussianBlur stdDeviation="2"/>
<feComposite in2="hardAlpha" operator="out"/>
<feColorMatrix type="matrix" values="0 0 0 0 0 0 0 0 0 0 0 0 0 0 0 0 0 0 0.25 0"/>
<feBlend mode="normal" in2="BackgroundImageFix" result="effect1_dropShadow_1_2"/>
<feBlend mode="normal" in="SourceGraphic" in2="effect1_dropShadow_1_2" result="shape"/>
</filter>
<linearGradient id="paint0_linear_1_2" x1="503.5" y1="-189.643" x2="583.091" y2="-223.017" gradientUnits="userSpaceOnUse">
<stop stop-color="#65A4DD"/>
<stop offset="1" stop-color="#0081F9" stop-opacity="0"/>
</linearGradient>
<linearGradient id="paint1_linear_1_2" x1="503.5" y1="-189.643" x2="583.091" y2="-223.017" gradientUnits="userSpaceOnUse">
<stop stop-color="#65A4DD"/>
<stop offset="1" stop-color="#0081F9" stop-opacity="0"/>
</linearGradient>
</defs>
</svg>
