<svg width="203" height="69" viewBox="0 0 203 69" fill="none" xmlns="http://www.w3.org/2000/svg">
<path d="M6.64899 55.5167C7.41012 53.0792 9.63416 51.3932 12.1867 51.3188L122.55 48.1005C124.436 48.0455 125.996 49.5567 126 51.4431V51.4431V51.4431C126 52.8086 124.953 53.946 123.592 54.0591L12.8568 63.2639C8.62484 63.6157 5.38325 59.5703 6.64899 55.5167V55.5167Z" fill="white"/>
<g filter="url(#filter0_d_431_318)">
<path d="M94.4808 19.1147C94.8911 16.866 96.4673 15.0056 98.618 14.2313L129.563 3.09115C133.743 1.58644 138.149 4.68364 138.149 9.12598V42.7354C138.149 46.2778 135.278 49.1494 131.735 49.1494H96.6903C92.6869 49.1494 89.6619 45.5223 90.3805 41.584L94.4808 19.1147Z" fill="url(#paint0_angular_431_318)"/>
</g>
<g filter="url(#filter1_d_431_318)">
<mask id="path-3-inside-1_431_318" fill="white">
<path d="M112.373 15.0552C115.521 14.2052 118.968 14.1427 122.288 14.8755C125.607 15.6083 128.652 17.1041 131.046 19.1773C133.439 21.2505 135.075 23.8098 135.751 26.5377C136.427 29.2656 136.112 32.0419 134.847 34.5222C133.581 37.0024 131.42 39.0775 128.632 40.4898C125.844 41.9021 122.551 42.5895 119.163 42.4667C115.774 42.3439 112.439 41.4163 109.571 39.799C106.703 38.1817 104.428 35.9459 103.029 33.3691L107.701 31.9034C108.686 33.7164 110.286 35.2894 112.304 36.4273C114.322 37.5652 116.669 38.2179 119.053 38.3043C121.437 38.3907 123.754 37.907 125.715 36.9134C127.677 35.9197 129.197 34.4597 130.088 32.7147C130.978 30.9696 131.199 29.0162 130.724 27.097C130.248 25.1777 129.097 23.377 127.413 21.9184C125.729 20.4597 123.587 19.4073 121.251 18.8917C118.916 18.3761 116.49 18.4201 114.276 19.0181L112.373 15.0552Z"/>
</mask>
<path d="M112.373 15.0552C115.521 14.2052 118.968 14.1427 122.288 14.8755C125.607 15.6083 128.652 17.1041 131.046 19.1773C133.439 21.2505 135.075 23.8098 135.751 26.5377C136.427 29.2656 136.112 32.0419 134.847 34.5222C133.581 37.0024 131.42 39.0775 128.632 40.4898C125.844 41.9021 122.551 42.5895 119.163 42.4667C115.774 42.3439 112.439 41.4163 109.571 39.799C106.703 38.1817 104.428 35.9459 103.029 33.3691L107.701 31.9034C108.686 33.7164 110.286 35.2894 112.304 36.4273C114.322 37.5652 116.669 38.2179 119.053 38.3043C121.437 38.3907 123.754 37.907 125.715 36.9134C127.677 35.9197 129.197 34.4597 130.088 32.7147C130.978 30.9696 131.199 29.0162 130.724 27.097C130.248 25.1777 129.097 23.377 127.413 21.9184C125.729 20.4597 123.587 19.4073 121.251 18.8917C118.916 18.3761 116.49 18.4201 114.276 19.0181L112.373 15.0552Z" fill="url(#paint1_angular_431_318)" fill-opacity="0.6" shape-rendering="crispEdges"/>
<path d="M112.373 15.0552C115.521 14.2052 118.968 14.1427 122.288 14.8755C125.607 15.6083 128.652 17.1041 131.046 19.1773C133.439 21.2505 135.075 23.8098 135.751 26.5377C136.427 29.2656 136.112 32.0419 134.847 34.5222C133.581 37.0024 131.42 39.0775 128.632 40.4898C125.844 41.9021 122.551 42.5895 119.163 42.4667C115.774 42.3439 112.439 41.4163 109.571 39.799C106.703 38.1817 104.428 35.9459 103.029 33.3691L107.701 31.9034C108.686 33.7164 110.286 35.2894 112.304 36.4273C114.322 37.5652 116.669 38.2179 119.053 38.3043C121.437 38.3907 123.754 37.907 125.715 36.9134C127.677 35.9197 129.197 34.4597 130.088 32.7147C130.978 30.9696 131.199 29.0162 130.724 27.097C130.248 25.1777 129.097 23.377 127.413 21.9184C125.729 20.4597 123.587 19.4073 121.251 18.8917C118.916 18.3761 116.49 18.4201 114.276 19.0181L112.373 15.0552Z" stroke="#FBEAEA" stroke-opacity="0.04" stroke-width="3.28145" shape-rendering="crispEdges" mask="url(#path-3-inside-1_431_318)"/>
</g>
<g filter="url(#filter2_d_431_318)">
<mask id="path-4-inside-2_431_318" fill="white">
<path d="M113.549 15.0552C111.377 15.6418 109.403 16.5886 107.747 17.8384C106.09 19.0882 104.786 20.6151 103.913 22.3268C103.039 24.0385 102.615 25.8996 102.665 27.7974C102.715 29.6953 103.239 31.5907 104.205 33.3691L106.555 32.6318C105.733 31.1186 105.288 29.5058 105.245 27.8909C105.202 26.276 105.563 24.6925 106.307 23.236C107.05 21.7795 108.159 20.4803 109.569 19.4168C110.978 18.3533 112.657 17.5477 114.506 17.0485L113.549 15.0552Z"/>
</mask>
<path d="M113.549 15.0552C111.377 15.6418 109.403 16.5886 107.747 17.8384C106.09 19.0882 104.786 20.6151 103.913 22.3268C103.039 24.0385 102.615 25.8996 102.665 27.7974C102.715 29.6953 103.239 31.5907 104.205 33.3691L106.555 32.6318C105.733 31.1186 105.288 29.5058 105.245 27.8909C105.202 26.276 105.563 24.6925 106.307 23.236C107.05 21.7795 108.159 20.4803 109.569 19.4168C110.978 18.3533 112.657 17.5477 114.506 17.0485L113.549 15.0552Z" fill="url(#paint2_angular_431_318)" fill-opacity="0.6" shape-rendering="crispEdges"/>
<path d="M113.549 15.0552C111.377 15.6418 109.403 16.5886 107.747 17.8384C106.09 19.0882 104.786 20.6151 103.913 22.3268C103.039 24.0385 102.615 25.8996 102.665 27.7974C102.715 29.6953 103.239 31.5907 104.205 33.3691L106.555 32.6318C105.733 31.1186 105.288 29.5058 105.245 27.8909C105.202 26.276 105.563 24.6925 106.307 23.236C107.05 21.7795 108.159 20.4803 109.569 19.4168C110.978 18.3533 112.657 17.5477 114.506 17.0485L113.549 15.0552Z" stroke="#FBEAEA" stroke-opacity="0.04" stroke-width="3.28145" shape-rendering="crispEdges" mask="url(#path-4-inside-2_431_318)"/>
</g>
<g filter="url(#filter3_d_431_318)">
<mask id="path-5-inside-3_431_318" fill="white">
<path d="M114.253 41.234C111.13 40.3174 108.29 38.6086 106.085 36.3195C103.881 34.0304 102.408 31.2619 101.851 28.3575C101.294 25.4531 101.677 22.5406 102.952 19.9815C104.226 17.4224 106.337 15.3293 109.022 13.962C111.707 12.5947 114.848 12.0133 118.055 12.29C121.262 12.5667 124.394 13.6893 127.063 15.5185C129.731 17.3477 131.818 19.803 133.066 22.5797C134.313 25.3563 134.665 28.3322 134.078 31.1379L129.306 29.9428C129.719 27.9687 129.471 25.875 128.593 23.9213C127.716 21.9677 126.247 20.2403 124.37 18.9533C122.492 17.6663 120.289 16.8764 118.032 16.6818C115.776 16.4871 113.566 16.8961 111.677 17.8582C109.788 18.8202 108.303 20.2928 107.406 22.0934C106.509 23.8939 106.24 25.943 106.632 27.9865C107.024 30.03 108.06 31.9779 109.611 33.5884C111.162 35.1989 113.16 36.4013 115.357 37.0461L114.253 41.234Z"/>
</mask>
<path d="M114.253 41.234C111.13 40.3174 108.29 38.6086 106.085 36.3195C103.881 34.0304 102.408 31.2619 101.851 28.3575C101.294 25.4531 101.677 22.5406 102.952 19.9815C104.226 17.4224 106.337 15.3293 109.022 13.962C111.707 12.5947 114.848 12.0133 118.055 12.29C121.262 12.5667 124.394 13.6893 127.063 15.5185C129.731 17.3477 131.818 19.803 133.066 22.5797C134.313 25.3563 134.665 28.3322 134.078 31.1379L129.306 29.9428C129.719 27.9687 129.471 25.875 128.593 23.9213C127.716 21.9677 126.247 20.2403 124.37 18.9533C122.492 17.6663 120.289 16.8764 118.032 16.6818C115.776 16.4871 113.566 16.8961 111.677 17.8582C109.788 18.8202 108.303 20.2928 107.406 22.0934C106.509 23.8939 106.24 25.943 106.632 27.9865C107.024 30.03 108.06 31.9779 109.611 33.5884C111.162 35.1989 113.16 36.4013 115.357 37.0461L114.253 41.234Z" fill="url(#paint3_angular_431_318)" fill-opacity="0.6" shape-rendering="crispEdges"/>
<path d="M114.253 41.234C111.13 40.3174 108.29 38.6086 106.085 36.3195C103.881 34.0304 102.408 31.2619 101.851 28.3575C101.294 25.4531 101.677 22.5406 102.952 19.9815C104.226 17.4224 106.337 15.3293 109.022 13.962C111.707 12.5947 114.848 12.0133 118.055 12.29C121.262 12.5667 124.394 13.6893 127.063 15.5185C129.731 17.3477 131.818 19.803 133.066 22.5797C134.313 25.3563 134.665 28.3322 134.078 31.1379L129.306 29.9428C129.719 27.9687 129.471 25.875 128.593 23.9213C127.716 21.9677 126.247 20.2403 124.37 18.9533C122.492 17.6663 120.289 16.8764 118.032 16.6818C115.776 16.4871 113.566 16.8961 111.677 17.8582C109.788 18.8202 108.303 20.2928 107.406 22.0934C106.509 23.8939 106.24 25.943 106.632 27.9865C107.024 30.03 108.06 31.9779 109.611 33.5884C111.162 35.1989 113.16 36.4013 115.357 37.0461L114.253 41.234Z" stroke="#FBEAEA" stroke-opacity="0.04" stroke-width="3.28145" shape-rendering="crispEdges" mask="url(#path-5-inside-3_431_318)"/>
</g>
<g filter="url(#filter4_d_431_318)">
<path d="M15.4771 60.1466C14.9689 60.1466 14.4998 60.044 14.0698 59.8387C13.6495 59.6335 13.2977 59.3501 13.0143 58.9885C12.7309 58.6171 12.5452 58.1871 12.4572 57.6984V55.4702C12.5452 54.9717 12.7309 54.5417 13.0143 54.1801C13.3075 53.8088 13.6642 53.5253 14.0844 53.3299C14.5145 53.1344 14.9787 53.0367 15.4771 53.0367C16.1221 53.0367 16.6987 53.193 17.2069 53.5058C17.7151 53.8185 18.1158 54.2437 18.409 54.7812C18.7022 55.3187 18.8488 55.9246 18.8488 56.599C18.8488 57.2733 18.7022 57.8792 18.409 58.4168C18.1158 58.9445 17.7151 59.3647 17.2069 59.6775C16.6987 59.9902 16.1221 60.1466 15.4771 60.1466ZM15.3452 59.4429C15.8827 59.4429 16.3567 59.3208 16.7672 59.0764C17.1776 58.8321 17.5001 58.4949 17.7347 58.0649C17.9692 57.6349 18.0865 57.1414 18.0865 56.5843C18.0865 56.0272 17.9692 55.5337 17.7347 55.1037C17.5001 54.6737 17.1776 54.3414 16.7672 54.1068C16.3665 53.8625 15.9071 53.7403 15.3892 53.7403C14.8614 53.7403 14.3972 53.8625 13.9965 54.1068C13.6056 54.3414 13.2977 54.6737 13.0729 55.1037C12.8482 55.5337 12.7358 56.0321 12.7358 56.599C12.7358 57.156 12.8433 57.6496 13.0583 58.0796C13.2831 58.4998 13.5909 58.8321 13.9818 59.0764C14.3825 59.3208 14.837 59.4429 15.3452 59.4429ZM12.0174 62.8879V53.1833H12.7651V54.8838L12.5892 56.5403L12.7651 58.2115V62.8879H12.0174ZM25.2617 60.0147L22.2272 53.1833H23.0481L25.6722 59.2377H25.291L28.0324 53.1833H28.8533L25.6429 60.0147H25.2617ZM23.4879 62.8879L25.2471 59.2817L25.6429 60.0147L24.2942 62.8879H23.4879ZM37.2554 60L33.4585 56.4964L37.1821 53.1833H38.1349L34.1768 56.6869L34.1915 56.2618L38.2669 60H37.2554ZM32.8135 60V49.7089H33.5611V60H32.8135ZM42.1095 60V53.1833H42.8425V60H42.1095ZM42.476 51.6C42.3099 51.6 42.1682 51.5414 42.0509 51.4241C41.9434 51.2971 41.8896 51.1505 41.8896 50.9843C41.8896 50.8182 41.9434 50.6814 42.0509 50.5739C42.1682 50.4566 42.3099 50.3979 42.476 50.3979C42.6422 50.3979 42.7839 50.4566 42.9011 50.5739C43.0184 50.6814 43.0771 50.8182 43.0771 50.9843C43.0771 51.1505 43.0184 51.2971 42.9011 51.4241C42.7839 51.5414 42.6422 51.6 42.476 51.6ZM48.7815 60V50.2953H49.5291V60H48.7815ZM47.0223 53.843V53.1833H51.2883V53.843H47.0223Z" fill="#333333"/>
</g>
<path d="M17.6385 48.6255C14.6779 48.6255 11.9883 47.9375 9.5698 46.5614C7.19299 45.1854 5.31656 43.3089 3.94051 40.9321C2.56446 38.5553 1.87643 35.9074 1.87643 32.9885C1.87643 30.028 2.56446 27.3801 3.94051 25.045C5.31656 22.6682 7.19299 20.7917 9.5698 19.4157C11.9883 18.0396 14.6779 17.3516 17.6385 17.3516C19.9736 17.3516 22.1419 17.8103 24.1434 18.7277C26.1866 19.6033 27.9171 20.8751 29.3349 22.5431L24.8314 27.1091C23.9558 26.0666 22.8925 25.2952 21.6415 24.7948C20.4323 24.2527 19.0979 23.9817 17.6385 23.9817C15.9288 23.9817 14.4068 24.3778 13.0725 25.1701C11.7798 25.9207 10.7582 26.9631 10.0076 28.2975C9.29876 29.6318 8.94432 31.1955 8.94432 32.9885C8.94432 34.7399 9.29876 36.3036 10.0076 37.6796C10.7582 39.014 11.7798 40.0773 13.0725 40.8696C14.4068 41.6201 15.9288 41.9954 17.6385 41.9954C19.0979 41.9954 20.4323 41.7452 21.6415 41.2448C22.8925 40.7028 23.9558 39.9105 24.8314 38.868L29.3349 43.434C27.9171 45.102 26.1866 46.3946 24.1434 47.312C22.1419 48.1876 19.9736 48.6255 17.6385 48.6255ZM34.3578 48V17.9771H41.238V48H34.3578ZM37.7979 12.4729C36.6303 12.4729 35.6504 12.0768 34.8581 11.2845C34.1076 10.4922 33.7323 9.5123 33.7323 8.34475C33.7323 7.17719 34.1076 6.19727 34.8581 5.405C35.6504 4.61273 36.6303 4.21659 37.7979 4.21659C39.0071 4.21659 39.987 4.61273 40.7376 5.405C41.4882 6.19727 41.8635 7.17719 41.8635 8.34475C41.8635 9.5123 41.4882 10.4922 40.7376 11.2845C39.987 12.0768 39.0071 12.4729 37.7979 12.4729ZM58.7748 48.6255C57.1069 48.6255 55.5015 48.417 53.9586 48C52.4158 47.5413 50.9981 46.9158 49.7054 46.1236C48.4127 45.2896 47.2869 44.2888 46.3278 43.1213L50.7062 38.7429C51.7486 39.9522 52.937 40.8696 54.2714 41.495C55.6474 42.0788 57.1903 42.3707 58.8999 42.3707C60.4428 42.3707 61.6103 42.1414 62.4026 41.6827C63.1949 41.224 63.591 40.5568 63.591 39.6812C63.591 38.7638 63.2157 38.0549 62.4651 37.5545C61.7146 37.0541 60.7346 36.6372 59.5254 36.3036C58.3578 35.9283 57.1069 35.553 55.7725 35.1777C54.4799 34.8024 53.2289 34.302 52.0197 33.6766C50.8521 33.0094 49.893 32.1129 49.1425 30.987C48.3919 29.8612 48.0166 28.4017 48.0166 26.6087C48.0166 24.6905 48.4544 23.0435 49.3301 21.6674C50.2475 20.2914 51.5193 19.228 53.1455 18.4775C54.8135 17.7269 56.7941 17.3516 59.0876 17.3516C61.5061 17.3516 63.6327 17.7895 65.4674 18.6651C67.3439 19.4991 68.9075 20.7709 70.1585 22.4805L65.7802 26.8589C64.9045 25.7747 63.9037 24.9616 62.7779 24.4195C61.652 23.8774 60.3594 23.6064 58.8999 23.6064C57.5239 23.6064 56.4606 23.8149 55.71 24.2319C54.9594 24.6489 54.5841 25.2535 54.5841 26.0458C54.5841 26.8797 54.9594 27.526 55.71 27.9847C56.4606 28.4434 57.4196 28.8395 58.5872 29.1731C59.7964 29.5067 61.0474 29.882 62.34 30.299C63.6744 30.6743 64.9253 31.2164 66.0929 31.9252C67.3022 32.5924 68.2821 33.5098 69.0326 34.6773C69.7832 35.8032 70.1585 37.2835 70.1585 39.1182C70.1585 42.0371 69.1369 44.3514 67.0937 46.061C65.0504 47.7707 62.2775 48.6255 58.7748 48.6255ZM89.6538 48.6255C86.6933 48.6255 84.0037 47.9375 81.5852 46.5614C79.2084 45.1854 77.3319 43.3089 75.9559 40.9321C74.5798 38.5553 73.8918 35.9074 73.8918 32.9885C73.8918 30.028 74.5798 27.3801 75.9559 25.045C77.3319 22.6682 79.2084 20.7917 81.5852 19.4157C84.0037 18.0396 86.6933 17.3516 89.6538 17.3516C91.989 17.3516 94.1573 17.8103 96.1588 18.7277C98.202 19.6033 99.9325 20.8751 101.35 22.5431L96.8468 27.1091C95.9712 26.0666 94.9079 25.2952 93.6569 24.7948C92.4476 24.2527 91.1133 23.9817 89.6538 23.9817C87.9442 23.9817 86.4222 24.3778 85.0879 25.1701C83.7952 25.9207 82.7736 26.9631 82.023 28.2975C81.3141 29.6318 80.9597 31.1955 80.9597 32.9885C80.9597 34.7399 81.3141 36.3036 82.023 37.6796C82.7736 39.014 83.7952 40.0773 85.0879 40.8696C86.4222 41.6201 87.9442 41.9954 89.6538 41.9954C91.1133 41.9954 92.4476 41.7452 93.6569 41.2448C94.9079 40.7028 95.9712 39.9105 96.8468 38.868L101.35 43.434C99.9325 45.102 98.202 46.3946 96.1588 47.312C94.1573 48.1876 91.989 48.6255 89.6538 48.6255Z" fill="url(#paint4_linear_431_318)" fill-opacity="0.94"/>
<defs>
<filter id="filter0_d_431_318" x="87.0684" y="2.70605" width="54.287" height="52.8573" filterUnits="userSpaceOnUse" color-interpolation-filters="sRGB">
<feFlood flood-opacity="0" result="BackgroundImageFix"/>
<feColorMatrix in="SourceAlpha" type="matrix" values="0 0 0 0 0 0 0 0 0 0 0 0 0 0 0 0 0 0 127 0" result="hardAlpha"/>
<feOffset dy="3.20699"/>
<feGaussianBlur stdDeviation="1.6035"/>
<feComposite in2="hardAlpha" operator="out"/>
<feColorMatrix type="matrix" values="0 0 0 0 0 0 0 0 0 0 0 0 0 0 0 0 0 0 0.25 0"/>
<feBlend mode="normal" in2="BackgroundImageFix" result="effect1_dropShadow_431_318"/>
<feBlend mode="normal" in="SourceGraphic" in2="effect1_dropShadow_431_318" result="shape"/>
</filter>
<filter id="filter1_d_431_318" x="99.8223" y="14.3682" width="39.4823" height="34.5263" filterUnits="userSpaceOnUse" color-interpolation-filters="sRGB">
<feFlood flood-opacity="0" result="BackgroundImageFix"/>
<feColorMatrix in="SourceAlpha" type="matrix" values="0 0 0 0 0 0 0 0 0 0 0 0 0 0 0 0 0 0 127 0" result="hardAlpha"/>
<feOffset dy="3.20699"/>
<feGaussianBlur stdDeviation="1.6035"/>
<feComposite in2="hardAlpha" operator="out"/>
<feColorMatrix type="matrix" values="0 0 0 0 0 0 0 0 0 0 0 0 0 0 0 0 0 0 0.25 0"/>
<feBlend mode="normal" in2="BackgroundImageFix" result="effect1_dropShadow_431_318"/>
<feBlend mode="normal" in="SourceGraphic" in2="effect1_dropShadow_431_318" result="shape"/>
</filter>
<filter id="filter2_d_431_318" x="99.4551" y="15.0547" width="18.2577" height="24.7284" filterUnits="userSpaceOnUse" color-interpolation-filters="sRGB">
<feFlood flood-opacity="0" result="BackgroundImageFix"/>
<feColorMatrix in="SourceAlpha" type="matrix" values="0 0 0 0 0 0 0 0 0 0 0 0 0 0 0 0 0 0 127 0" result="hardAlpha"/>
<feOffset dy="3.20699"/>
<feGaussianBlur stdDeviation="1.6035"/>
<feComposite in2="hardAlpha" operator="out"/>
<feColorMatrix type="matrix" values="0 0 0 0 0 0 0 0 0 0 0 0 0 0 0 0 0 0 0.25 0"/>
<feBlend mode="normal" in2="BackgroundImageFix" result="effect1_dropShadow_431_318"/>
<feBlend mode="normal" in="SourceGraphic" in2="effect1_dropShadow_431_318" result="shape"/>
</filter>
<filter id="filter3_d_431_318" x="98.3946" y="12.2227" width="39.1679" height="35.4257" filterUnits="userSpaceOnUse" color-interpolation-filters="sRGB">
<feFlood flood-opacity="0" result="BackgroundImageFix"/>
<feColorMatrix in="SourceAlpha" type="matrix" values="0 0 0 0 0 0 0 0 0 0 0 0 0 0 0 0 0 0 127 0" result="hardAlpha"/>
<feOffset dy="3.20699"/>
<feGaussianBlur stdDeviation="1.6035"/>
<feComposite in2="hardAlpha" operator="out"/>
<feColorMatrix type="matrix" values="0 0 0 0 0 0 0 0 0 0 0 0 0 0 0 0 0 0 0.25 0"/>
<feBlend mode="normal" in2="BackgroundImageFix" result="effect1_dropShadow_431_318"/>
<feBlend mode="normal" in="SourceGraphic" in2="effect1_dropShadow_431_318" result="shape"/>
</filter>
<filter id="filter4_d_431_318" x="10.063" y="49.709" width="43.1807" height="17.0879" filterUnits="userSpaceOnUse" color-interpolation-filters="sRGB">
<feFlood flood-opacity="0" result="BackgroundImageFix"/>
<feColorMatrix in="SourceAlpha" type="matrix" values="0 0 0 0 0 0 0 0 0 0 0 0 0 0 0 0 0 0 127 0" result="hardAlpha"/>
<feOffset dy="1.95462"/>
<feGaussianBlur stdDeviation="0.977308"/>
<feComposite in2="hardAlpha" operator="out"/>
<feColorMatrix type="matrix" values="0 0 0 0 0 0 0 0 0 0 0 0 0 0 0 0 0 0 0.25 0"/>
<feBlend mode="normal" in2="BackgroundImageFix" result="effect1_dropShadow_431_318"/>
<feBlend mode="normal" in="SourceGraphic" in2="effect1_dropShadow_431_318" result="shape"/>
</filter>
<radialGradient id="paint0_angular_431_318" cx="0" cy="0" r="1" gradientUnits="userSpaceOnUse" gradientTransform="translate(104.974 36.3706) rotate(56.0564) scale(15.4038)">
<stop stop-color="#333333"/>
<stop offset="0.71875" stop-color="#54676D"/>
</radialGradient>
<radialGradient id="paint1_angular_431_318" cx="0" cy="0" r="1" gradientUnits="userSpaceOnUse" gradientTransform="translate(119.29 29.9653) rotate(-102.79) scale(5.0625 6.2846)">
<stop offset="0.15625" stop-color="#3BF0E4" stop-opacity="0.86"/>
<stop offset="0.753031" stop-color="#00AFE7"/>
</radialGradient>
<radialGradient id="paint2_angular_431_318" cx="0" cy="0" r="1" gradientUnits="userSpaceOnUse" gradientTransform="translate(120.466 29.9653) rotate(-102.79) scale(5.0625 6.2846)">
<stop offset="0.15625" stop-color="#3BF0E4" stop-opacity="0.86"/>
<stop offset="0.753031" stop-color="#00AFE7"/>
</radialGradient>
<radialGradient id="paint3_angular_431_318" cx="0" cy="0" r="1" gradientUnits="userSpaceOnUse" gradientTransform="translate(118.604 25.601) rotate(117.56) scale(5.16546 6.15933)">
<stop offset="0.15625" stop-color="#3BF0E4" stop-opacity="0.86"/>
<stop offset="0.753031" stop-color="#00AFE7"/>
</radialGradient>
<linearGradient id="paint4_linear_431_318" x1="53.3559" y1="4" x2="208.65" y2="92.979" gradientUnits="userSpaceOnUse">
<stop stop-color="#00AFE7"/>
<stop offset="1" stop-color="#064784"/>
</linearGradient>
</defs>
</svg>
