<svg width="167" height="163" viewBox="0 0 167 163" fill="none" xmlns="http://www.w3.org/2000/svg">
<path d="M14.6729 57.2349C16.1041 49.391 21.6024 42.9016 29.1046 40.2007L137.05 1.34168C151.631 -3.90704 167 6.89659 167 22.3923V139.628C167 151.985 156.985 162.002 144.626 162.002H22.3803C8.41527 162.002 -2.13679 149.35 0.369893 135.612L14.6729 57.2349Z" fill="url(#paint0_radial_444_34)"/>
<g filter="url(#filter0_d_444_34)">
<g filter="url(#filter1_d_444_34)">
<path d="M64.4767 52.4741C75.4578 49.5091 87.4819 49.2911 99.063 51.8472C110.641 54.4034 121.262 59.621 129.613 66.8528C137.961 74.0845 143.668 83.0118 146.026 92.5273C148.384 102.043 147.285 111.727 142.872 120.379C138.456 129.03 130.918 136.268 121.193 141.195C111.467 146.121 99.9804 148.519 88.1621 148.091C76.3403 147.662 64.7069 144.427 54.7025 138.785C44.6981 133.144 36.7622 125.345 31.8821 116.356L48.1794 111.244C51.6154 117.568 57.1966 123.055 64.236 127.024C71.2753 130.993 79.4623 133.27 87.7784 133.571C96.0945 133.873 104.177 132.186 111.017 128.72C117.861 125.253 123.164 120.161 126.272 114.074C129.376 107.987 130.147 101.173 128.49 94.4782C126.83 87.7833 122.815 81.5021 116.94 76.4142C111.066 71.326 103.594 67.655 95.4456 65.8565C87.3005 64.058 78.8379 64.2115 71.1149 66.2974L64.4767 52.4741Z" fill="url(#paint1_radial_444_34)" fill-opacity="0.6"/>
<mask id="mask0_444_34" style="mask-type:luminance" maskUnits="userSpaceOnUse" x="30" y="49" width="119" height="101">
<path d="M64.4767 52.4741C75.4578 49.5091 87.4819 49.2911 99.063 51.8472C110.641 54.4034 121.262 59.621 129.613 66.8528C137.961 74.0845 143.668 83.0118 146.026 92.5273C148.384 102.043 147.285 111.727 142.872 120.379C138.456 129.03 130.918 136.268 121.193 141.195C111.467 146.121 99.9804 148.519 88.1621 148.091C76.3403 147.662 64.7069 144.427 54.7025 138.785C44.6981 133.144 36.7622 125.345 31.8821 116.356L48.1794 111.244C51.6154 117.568 57.1966 123.055 64.236 127.024C71.2753 130.993 79.4623 133.27 87.7784 133.571C96.0945 133.873 104.177 132.186 111.017 128.72C117.861 125.253 123.164 120.161 126.272 114.074C129.376 107.987 130.147 101.173 128.49 94.4782C126.83 87.7833 122.815 81.5021 116.94 76.4142C111.066 71.326 103.594 67.655 95.4456 65.8565C87.3005 64.058 78.8379 64.2115 71.1149 66.2974L64.4767 52.4741Z" stroke="#FBEAEA" stroke-opacity="0.04" stroke-width="1.81493"/>
</mask>
<g mask="url(#mask0_444_34)">
<path d="M64.4767 52.4741C75.4578 49.5091 87.4819 49.2911 99.063 51.8472C110.641 54.4034 121.262 59.621 129.613 66.8528C137.961 74.0845 143.668 83.0118 146.026 92.5273C148.384 102.043 147.285 111.727 142.872 120.379C138.456 129.03 130.918 136.268 121.193 141.195C111.467 146.121 99.9804 148.519 88.1621 148.091C76.3403 147.662 64.7069 144.427 54.7025 138.785C44.6981 133.144 36.7622 125.345 31.8821 116.356L48.1794 111.244C51.6154 117.568 57.1966 123.055 64.236 127.024C71.2753 130.993 79.4623 133.27 87.7784 133.571C96.0945 133.873 104.177 132.186 111.017 128.72C117.861 125.253 123.164 120.161 126.272 114.074C129.376 107.987 130.147 101.173 128.49 94.4782C126.83 87.7833 122.815 81.5021 116.94 76.4142C111.066 71.326 103.594 67.655 95.4456 65.8565C87.3005 64.058 78.8379 64.2115 71.1149 66.2974L64.4767 52.4741Z" stroke="#FBEAEA" stroke-opacity="0.04" stroke-width="1.81493"/>
</g>
</g>
<path d="M71.3275 144.162C60.4335 140.964 50.5268 135.004 42.8352 127.019C35.147 119.034 30.0087 109.377 28.0658 99.2459C26.1228 89.1148 27.4588 78.9554 31.9064 70.0288C36.3505 61.1022 43.7142 53.801 53.0803 49.0316C62.4463 44.2622 73.403 42.2342 84.5899 43.1994C95.7768 44.1645 106.702 48.0804 116.012 54.461C125.319 60.8416 132.599 69.4062 136.953 79.0918C141.302 88.7771 142.53 99.1577 140.483 108.944L123.837 104.776C125.277 97.8897 124.412 90.5865 121.349 83.7716C118.29 76.9571 113.166 70.9315 106.618 66.4422C100.067 61.9529 92.3827 59.1976 84.5097 58.5188C76.6401 57.8397 68.931 59.2663 62.3417 62.6223C55.7523 65.978 50.5722 71.1147 47.4432 77.3955C44.3142 83.676 43.3759 90.8237 44.7433 97.9518C46.1107 105.08 49.7245 111.875 55.1349 117.492C60.5452 123.11 67.5148 127.304 75.1785 129.553L71.3275 144.162Z" fill="url(#paint2_radial_444_34)" fill-opacity="0.6"/>
<mask id="mask1_444_34" style="mask-type:luminance" maskUnits="userSpaceOnUse" x="25" y="41" width="118" height="104">
<path d="M71.0347 143.791C60.1408 140.594 50.2341 134.633 42.5424 126.648C34.8543 118.663 29.716 109.006 27.773 98.8751C25.8301 88.744 27.1661 78.5847 31.6137 69.658C36.0577 60.7314 43.4215 53.4302 52.7875 48.6608C62.1536 43.8914 73.1103 41.8634 84.2972 42.8286C95.4841 43.7938 106.409 47.7096 115.72 54.0902C125.026 60.4708 132.306 69.0354 136.66 78.721C141.01 88.4064 142.238 98.7869 140.19 108.574L123.544 104.405C124.985 97.5189 124.119 90.2157 121.057 83.4008C117.998 76.5863 112.873 70.5608 106.326 66.0715C99.7747 61.5821 92.09 58.8268 84.217 58.148C76.3474 57.4689 68.6383 58.8955 62.0489 62.2515C55.4596 65.6072 50.2794 70.7439 47.1505 77.0247C44.0215 83.3052 43.0831 90.4529 44.4505 97.581C45.818 104.709 49.4318 111.504 54.8421 117.122C60.2525 122.739 67.2221 126.933 74.8858 129.183L71.0347 143.791Z" stroke="#FBEAEA" stroke-opacity="0.04" stroke-width="1.81493"/>
</mask>
<g mask="url(#mask1_444_34)">
<path d="M71.0347 143.791C60.1408 140.594 50.2341 134.633 42.5424 126.648C34.8543 118.663 29.716 109.006 27.773 98.8751C25.8301 88.744 27.1661 78.5847 31.6137 69.658C36.0577 60.7314 43.4215 53.4302 52.7875 48.6608C62.1536 43.8914 73.1103 41.8634 84.2972 42.8286C95.4841 43.7938 106.409 47.7096 115.72 54.0902C125.026 60.4708 132.306 69.0354 136.66 78.721C141.01 88.4064 142.238 98.7869 140.19 108.574L123.544 104.405C124.985 97.5189 124.119 90.2157 121.057 83.4008C117.998 76.5863 112.873 70.5608 106.326 66.0715C99.7747 61.5821 92.09 58.8268 84.217 58.148C76.3474 57.4689 68.6383 58.8955 62.0489 62.2515C55.4596 65.6072 50.2794 70.7439 47.1505 77.0247C44.0215 83.3052 43.0831 90.4529 44.4505 97.581C45.818 104.709 49.4318 111.504 54.8421 117.122C60.2525 122.739 67.2221 126.933 74.8858 129.183L71.0347 143.791Z" stroke="#FBEAEA" stroke-opacity="0.04" stroke-width="1.81493"/>
</g>
</g>
<defs>
<filter id="filter0_d_444_34" x="23.7853" y="41.6866" width="126.572" height="111.785" filterUnits="userSpaceOnUse" color-interpolation-filters="sRGB">
<feFlood flood-opacity="0" result="BackgroundImageFix"/>
<feColorMatrix in="SourceAlpha" type="matrix" values="0 0 0 0 0 0 0 0 0 0 0 0 0 0 0 0 0 0 127 0" result="hardAlpha"/>
<feOffset dy="2.21236"/>
<feGaussianBlur stdDeviation="1.10618"/>
<feComposite in2="hardAlpha" operator="out"/>
<feColorMatrix type="matrix" values="0 0 0 0 0 0 0 0 0 0 0 0 0 0 0 0 0 0 0.25 0"/>
<feBlend mode="normal" in2="BackgroundImageFix" result="effect1_dropShadow_444_34"/>
<feBlend mode="normal" in="SourceGraphic" in2="effect1_dropShadow_444_34" result="shape"/>
</filter>
<filter id="filter1_d_444_34" x="28.7848" y="49.1706" width="121.134" height="103.424" filterUnits="userSpaceOnUse" color-interpolation-filters="sRGB">
<feFlood flood-opacity="0" result="BackgroundImageFix"/>
<feColorMatrix in="SourceAlpha" type="matrix" values="0 0 0 0 0 0 0 0 0 0 0 0 0 0 0 0 0 0 127 0" result="hardAlpha"/>
<feOffset dy="1.77375"/>
<feGaussianBlur stdDeviation="0.886878"/>
<feComposite in2="hardAlpha" operator="out"/>
<feColorMatrix type="matrix" values="0 0 0 0 0 0 0 0 0 0 0 0 0 0 0 0 0 0 0.25 0"/>
<feBlend mode="normal" in2="BackgroundImageFix" result="effect1_dropShadow_444_34"/>
<feBlend mode="normal" in="SourceGraphic" in2="effect1_dropShadow_444_34" result="shape"/>
</filter>
<radialGradient id="paint0_radial_444_34" cx="0" cy="0" r="1" gradientUnits="userSpaceOnUse" gradientTransform="translate(292.653 143.816) rotate(56.0557) scale(53.7319 53.7324)">
<stop offset="0.293982" stop-color="#333333"/>
<stop offset="0.465857" stop-color="#2A6B80"/>
<stop offset="0.89294" stop-color="#54676D"/>
</radialGradient>
<radialGradient id="paint1_radial_444_34" cx="0" cy="0" r="1" gradientUnits="userSpaceOnUse" gradientTransform="translate(88.6051 104.483) rotate(-102.79) scale(17.659 21.9224)">
<stop offset="0.15625" stop-color="#3BF0E4" stop-opacity="0.86"/>
<stop offset="0.753031" stop-color="#00AFE7"/>
</radialGradient>
<radialGradient id="paint2_radial_444_34" cx="0" cy="0" r="1" gradientUnits="userSpaceOnUse" gradientTransform="translate(86.505 89.6307) rotate(117.561) scale(18.0182 21.4854)">
<stop offset="0.15625" stop-color="#3BF0E4" stop-opacity="0.86"/>
<stop offset="0.753031" stop-color="#00AFE7"/>
</radialGradient>
</defs>
</svg>
